<svg width="36" height="36" viewBox="0 0 36 36" fill="none" xmlns="http://www.w3.org/2000/svg">
<path d="M0 0V36H36V0H0ZM1.49962 1.53818H34.4993V34.4607H1.49962V1.53818ZM10.1779 20.3864L8.98875 24.9777C8.96512 25.1035 8.91225 25.152 8.766 25.152H6.56325C6.417 25.152 6.39337 25.0977 6.417 24.9235L10.6762 9.63988C10.7471 9.36293 10.7989 9.14138 10.8225 8.37748C10.8225 8.27478 10.8698 8.2217 10.9451 8.2217H14.0918C14.1919 8.2217 14.238 8.25171 14.2616 8.37748L19.0373 24.9466C19.0609 25.0723 19.0372 25.145 18.9146 25.145H16.4419C16.3192 25.145 16.2427 25.1035 16.2191 25.0008L14.9827 20.3794H10.1779V20.3864ZM14.3843 17.8858C13.9624 16.1849 12.9431 12.4531 12.5741 10.6553H12.5505C12.2288 12.452 11.4199 15.4995 10.7989 17.8858H14.3843ZM22.4235 19.4609C22.4527 21.5461 23.4135 22.9411 25.6927 22.9411C26.5837 22.9411 27.3454 22.821 28.1363 22.46C28.2364 22.4115 28.3118 22.4415 28.3118 22.5684V24.4977C28.3118 24.6477 28.2645 24.7262 28.1599 24.8046C27.369 25.2074 26.3846 25.3874 25.1483 25.3874C21.1871 25.3874 19.7044 22.3942 19.7044 19.0409C19.7044 15.4106 21.5325 12.4416 24.7556 12.4416C28.0192 12.4416 29.1555 15.2606 29.1555 17.5442C29.1555 18.2839 29.1026 18.8909 29.0329 19.1724C29.0036 19.2982 28.9564 19.3409 28.8337 19.3651C28.5345 19.4194 27.6446 19.4678 26.3318 19.4678H22.4235V19.4609ZM25.4711 17.3446C26.2384 17.3446 26.5084 17.3446 26.5849 17.3204C26.5849 17.2177 26.6085 17.1277 26.6085 17.0561C26.6085 16.2149 26.2103 14.6756 24.651 14.6756C23.2155 14.6756 22.5945 15.9738 22.4483 17.3446H25.4711Z" fill="black"/>
</svg>
