<svg width="36" height="36" viewBox="0 0 36 36" fill="none" xmlns="http://www.w3.org/2000/svg">
<rect width="36" height="36" fill="black"/>
<path d="M23 23C25.7614 23 28 20.7614 28 18C28 15.2386 25.7614 13 23 13C20.2386 13 18 15.2386 18 18C18 20.7614 20.2386 23 23 23Z" fill="#19BCFE"/>
<path fill-rule="evenodd" clip-rule="evenodd" d="M13 33C14.3261 33 15.5979 32.4732 16.5355 31.5355C17.4732 30.5979 18 29.3261 18 28V23H13C11.6739 23 10.4021 23.5268 9.46447 24.4645C8.52678 25.4021 8 26.6739 8 28C8 29.3261 8.52678 30.5979 9.46447 31.5355C10.4021 32.4732 11.6739 33 13 33V33Z" fill="#09CF83"/>
<path fill-rule="evenodd" clip-rule="evenodd" d="M13 23H18V13H13C11.6739 13 10.4021 13.5268 9.46447 14.4645C8.52678 15.4021 8 16.6739 8 18C8 19.3261 8.52678 20.5979 9.46447 21.5355C10.4021 22.4732 11.6739 23 13 23V23Z" fill="#A259FF"/>
<path fill-rule="evenodd" clip-rule="evenodd" d="M13 13H18V3H13C11.6739 3 10.4021 3.52678 9.46447 4.46447C8.52678 5.40215 8 6.67392 8 8C8 9.32608 8.52678 10.5979 9.46447 11.5355C10.4021 12.4732 11.6739 13 13 13V13Z" fill="#F24E1E"/>
<path fill-rule="evenodd" clip-rule="evenodd" d="M23 13H18V3H23C24.3261 3 25.5979 3.52678 26.5355 4.46447C27.4732 5.40215 28 6.67392 28 8C28 9.32608 27.4732 10.5979 26.5355 11.5355C25.5979 12.4732 24.3261 13 23 13Z" fill="#FF7262"/>
</svg>
