<svg width="36" height="36" viewBox="0 0 36 36" fill="none" xmlns="http://www.w3.org/2000/svg">
<path d="M0 0V36H36V0H0ZM1.49962 1.53818H34.4993V34.4607H1.49962V1.53818ZM12.4864 20.3864L11.2972 24.9962C11.2736 25.1289 11.2264 25.152 11.0801 25.152H8.87737C8.7255 25.152 8.70188 25.1035 8.7255 24.9293L12.9847 9.62834C13.0612 9.35139 13.1074 9.10561 13.131 8.34171C13.131 8.23901 13.1839 8.1917 13.2604 8.1917H16.4014C16.5015 8.1917 16.5532 8.21593 16.5769 8.34171L21.3525 24.9535C21.3817 25.0793 21.3525 25.152 21.2299 25.152H18.7571C18.6278 25.152 18.558 25.122 18.5344 25.0193L17.2924 20.3852H12.4819L12.4864 20.3864ZM16.6702 17.8858C16.2484 16.1849 15.2584 12.4589 14.8894 10.6553H14.8601C14.544 12.452 13.7464 15.4995 13.1321 17.8858H16.6702ZM23.4203 9.33409C23.4203 8.34287 24.0885 7.75898 24.9559 7.75898C25.8705 7.75898 26.4915 8.39595 26.4915 9.33409C26.4915 10.3495 25.8469 10.9092 24.9266 10.9092C24.03 10.9092 23.4146 10.3507 23.4146 9.33409H23.4203ZM23.5901 12.8316C23.5901 12.7116 23.6374 12.6632 23.76 12.6632H26.1158C26.2508 12.6632 26.2969 12.7116 26.2969 12.8432V24.9893C26.2969 25.115 26.2732 25.1635 26.1214 25.1635H23.8005C23.6486 25.1635 23.6014 25.0908 23.6014 24.965V12.8305L23.5901 12.8316Z" fill="black"/>
</svg>
