<svg width="36" height="36" viewBox="0 0 36 36" fill="none" xmlns="http://www.w3.org/2000/svg">
<path d="M0 0V36H36V0H0ZM1.49962 1.53938H34.4993V34.4629H1.49962V1.53938ZM13.1591 24.9555C13.1591 25.1043 13.1366 25.1528 12.9668 25.1528H10.6571C10.512 25.1528 10.4648 25.0824 10.4648 24.9555V8.43199C10.4648 8.28313 10.5334 8.22774 10.6571 8.22774H12.9892C13.1119 8.22774 13.1591 8.28313 13.1591 8.40891V24.9555ZM15.8209 18.993C15.8209 15.3142 18.1823 12.4478 21.9724 12.4478C22.2885 12.4478 22.4663 12.4478 22.7644 12.4651V8.38468C22.7635 8.36451 22.7666 8.34433 22.7734 8.32541C22.7804 8.30648 22.7907 8.28917 22.8044 8.27452C22.8179 8.25986 22.8341 8.24816 22.8523 8.24011C22.8703 8.23208 22.8897 8.22788 22.9095 8.22774H25.3474C25.4768 8.22774 25.5004 8.28313 25.5004 8.36044V22.756C25.5004 23.1818 25.5004 23.7173 25.5769 24.3012C25.5769 24.4027 25.5465 24.4269 25.4475 24.4812C24.2174 25.0817 22.8724 25.394 21.51 25.3951C18.1879 25.3951 15.8141 23.2857 15.8141 18.9942L15.8209 18.993ZM22.7644 14.9588C22.5405 14.8572 22.2424 14.803 21.8734 14.803C19.9463 14.803 18.5929 16.3228 18.5929 18.8649C18.5929 21.7625 19.9687 22.9279 21.7035 22.9279C22.0725 22.9279 22.4696 22.8806 22.7644 22.7479V14.9588Z" fill="black"/>
</svg>
