<svg width="36" height="36" viewBox="0 0 36 36" fill="none" xmlns="http://www.w3.org/2000/svg">
<g clip-path="url(#clip0)">
<path d="M0.5 0.5H35.5V35.5H0.5V0.5Z" stroke="black" stroke-width="1.5"/>
<mask id="mask0" mask-type="alpha" maskUnits="userSpaceOnUse" x="9" y="16" width="11" height="18">
<path d="M9.46596 30.084L12.2208 28.4168C12.7524 29.3591 13.2358 30.1564 14.3956 30.1564C15.5072 30.1564 16.2082 29.7216 16.2082 28.0302V16.5273H19.5912V28.078C19.5912 31.582 17.5373 33.1769 14.5406 33.1769C11.8342 33.1769 10.2633 31.7753 9.46582 30.0837" fill="white"/>
</mask>
<g mask="url(#mask0)">
<path d="M9.46596 30.084L12.2208 28.4168C12.7524 29.3591 13.2358 30.1564 14.3956 30.1564C15.5072 30.1564 16.2082 29.7216 16.2082 28.0302V16.5273H19.5912V28.078C19.5912 31.582 17.5373 33.1769 14.5406 33.1769C11.8342 33.1769 10.2633 31.7753 9.46582 30.0837" fill="black"/>
<path d="M12.2208 28.4168L13.0918 27.9255L12.5852 27.0274L11.703 27.5612L12.2208 28.4168ZM16.2082 16.5273V15.5273H15.2082V16.5273H16.2082ZM19.5912 16.5273H20.5912V15.5273H19.5912V16.5273ZM9.98371 30.9395L12.7386 29.2723L11.703 27.5612L8.94817 29.2285L9.98371 30.9395ZM11.3498 28.9081C11.6038 29.3583 11.9249 29.927 12.3822 30.3634C12.8894 30.8475 13.5437 31.1564 14.3956 31.1564V29.1564C14.0877 29.1564 13.9204 29.0667 13.763 28.9166C13.5558 28.7187 13.3694 28.4176 13.0918 27.9255L11.3498 28.9081ZM14.3956 31.1564C15.052 31.1564 15.8384 31.0333 16.4324 30.4281C17.0172 29.8323 17.2082 28.9797 17.2082 28.0302H15.2082C15.2082 28.7721 15.0487 28.9826 15.0051 29.0271C14.9707 29.0622 14.8508 29.1564 14.3956 29.1564V31.1564ZM17.2082 28.0302V16.5273H15.2082V28.0302H17.2082ZM16.2082 17.5273H19.5912V15.5273H16.2082V17.5273ZM18.5912 16.5273V28.078H20.5912V16.5273H18.5912ZM18.5912 28.078C18.5912 29.6325 18.1409 30.6134 17.5039 31.2136C16.8562 31.8238 15.871 32.1769 14.5406 32.1769V34.1769C16.2069 34.1769 17.7469 33.7325 18.8754 32.6693C20.0146 31.596 20.5912 30.0274 20.5912 28.078H18.5912ZM14.5406 32.1769C12.2669 32.1769 11.0231 31.0419 10.3703 29.6573L8.56128 30.5102C9.50348 32.5087 11.4016 34.1769 14.5406 34.1769V32.1769Z" fill="black"/>
</g>
<mask id="mask1" mask-type="alpha" maskUnits="userSpaceOnUse" x="21" y="16" width="13" height="18">
<path d="M21.4284 29.7216L24.1829 28.1268C24.9081 29.311 25.8506 30.1809 27.5178 30.1809C28.9197 30.1809 29.8136 29.48 29.8136 28.5134C29.8136 27.3535 28.8953 26.9426 27.3487 26.2662L26.5031 25.9034C24.0623 24.8646 22.4433 23.5596 22.4433 20.8047C22.4433 18.2673 24.3764 16.334 27.3972 16.334C29.5479 16.334 31.0945 17.0832 32.206 19.0406L29.5718 20.7323C28.9917 19.6932 28.3637 19.2825 27.397 19.2825C26.4062 19.2825 25.7779 19.9108 25.7779 20.7323C25.7779 21.7472 26.4062 22.1582 27.8561 22.7866L28.7018 23.149C31.5775 24.3815 33.1966 25.638 33.1966 28.4651C33.1966 31.5102 30.8043 33.1775 27.5903 33.1775C24.4488 33.1775 22.4189 31.6793 21.4282 29.7218" fill="white"/>
</mask>
<g mask="url(#mask1)">
<path d="M21.4284 29.7216L24.1829 28.1268C24.9081 29.311 25.8506 30.1809 27.5178 30.1809C28.9197 30.1809 29.8136 29.48 29.8136 28.5134C29.8136 27.3535 28.8953 26.9426 27.3487 26.2662L26.5031 25.9034C24.0623 24.8646 22.4433 23.5596 22.4433 20.8047C22.4433 18.2673 24.3764 16.334 27.3972 16.334C29.5479 16.334 31.0945 17.0832 32.206 19.0406L29.5718 20.7323C28.9917 19.6932 28.3637 19.2825 27.397 19.2825C26.4062 19.2825 25.7779 19.9108 25.7779 20.7323C25.7779 21.7472 26.4062 22.1582 27.8561 22.7866L28.7018 23.149C31.5775 24.3815 33.1966 25.638 33.1966 28.4651C33.1966 31.5102 30.8043 33.1775 27.5903 33.1775C24.4488 33.1775 22.4189 31.6793 21.4282 29.7218" fill="black"/>
<path d="M24.1828 28.1268L25.0356 27.6045L24.5261 26.7725L23.6818 27.2614L24.1828 28.1268ZM27.3486 26.2662L27.7493 25.35L27.7429 25.3472L27.3486 26.2662ZM26.503 25.9034L26.8973 24.9844L26.8946 24.9832L26.503 25.9034ZM32.2059 19.0406L32.7463 19.882L33.5431 19.3703L33.0755 18.5468L32.2059 19.0406ZM29.5717 20.7323L28.6986 21.2198L29.2171 22.1485L30.1121 21.5737L29.5717 20.7323ZM27.856 22.7866L27.4583 23.7041L27.4621 23.7057L27.856 22.7866ZM28.7017 23.149L29.0956 22.2298H29.0955L28.7017 23.149ZM21.9293 30.587L24.6839 28.9922L23.6818 27.2614L20.9272 28.8562L21.9293 30.587ZM23.33 28.649C23.7326 29.3064 24.238 29.9486 24.9327 30.4235C25.6437 30.9095 26.4953 31.1809 27.5177 31.1809V29.1809C26.873 29.1809 26.4197 29.0173 26.0614 28.7724C25.6867 28.5163 25.3583 28.1314 25.0356 27.6045L23.33 28.649ZM27.5177 31.1809C28.375 31.1809 29.1747 30.9675 29.7875 30.5125C30.4198 30.043 30.8135 29.3378 30.8135 28.5134H28.8135C28.8135 28.6556 28.7602 28.7842 28.5951 28.9068C28.4105 29.0439 28.0624 29.1809 27.5177 29.1809V31.1809ZM30.8135 28.5134C30.8135 28.0852 30.7271 27.6802 30.5332 27.307C30.3416 26.9382 30.0719 26.6525 29.7788 26.4222C29.2332 25.9935 28.4797 25.6694 27.7493 25.35L26.9479 27.1824C27.7641 27.5394 28.243 27.759 28.5432 27.9948C28.6729 28.0967 28.7295 28.1735 28.7584 28.2291C28.785 28.2803 28.8135 28.3616 28.8135 28.5134H30.8135ZM27.7429 25.3472L26.8973 24.9844L26.1087 26.8224L26.9543 27.1852L27.7429 25.3472ZM26.8946 24.9832C25.7216 24.484 24.8688 23.9688 24.3059 23.3341C23.7733 22.7335 23.4432 21.9613 23.4432 20.8047H21.4432C21.4432 22.403 21.9225 23.6607 22.8096 24.6611C23.6664 25.6272 24.8436 26.2839 26.1114 26.8235L26.8946 24.9832ZM23.4432 20.8047C23.4432 19.8001 23.8207 18.9523 24.4683 18.3501C25.1188 17.7453 26.1024 17.334 27.3971 17.334V15.334C25.671 15.334 24.1777 15.8893 23.1064 16.8855C22.0321 17.8844 21.4432 19.272 21.4432 20.8047H23.4432ZM27.3971 17.334C28.3577 17.334 29.1055 17.5012 29.7135 17.8318C30.3151 18.1589 30.855 18.6868 31.3363 19.5344L33.0755 18.5468C32.4453 17.437 31.6562 16.6116 30.6689 16.0748C29.6881 15.5414 28.5872 15.334 27.3971 15.334V17.334ZM31.6655 18.1992L29.0313 19.8909L30.1121 21.5737L32.7463 19.882L31.6655 18.1992ZM30.4449 20.2449C30.1115 19.6477 29.7137 19.1374 29.1824 18.7846C28.6343 18.4208 28.0321 18.2825 27.3969 18.2825V20.2825C27.7284 20.2825 27.9236 20.3495 28.0762 20.4509C28.2455 20.5633 28.4518 20.7778 28.6986 21.2198L30.4449 20.2449ZM27.3969 18.2825C26.6882 18.2825 26.029 18.5101 25.5369 18.9651C25.0416 19.4231 24.7778 20.0562 24.7778 20.7323H26.7778C26.7778 20.5869 26.8282 20.4951 26.8947 20.4335C26.9645 20.369 27.1149 20.2825 27.3969 20.2825V18.2825ZM24.7778 20.7323C24.7778 21.5026 25.0401 22.1339 25.5998 22.6437C26.0782 23.0795 26.7484 23.3965 27.4583 23.7041L28.2536 21.869C27.5137 21.5484 27.1447 21.3456 26.9466 21.1651C26.8297 21.0586 26.7778 20.9769 26.7778 20.7323H24.7778ZM27.4621 23.7057L28.3078 24.0681L29.0955 22.2298L28.2498 21.8674L27.4621 23.7057ZM28.3077 24.0681C29.7208 24.6738 30.6806 25.2294 31.2953 25.8902C31.8665 26.5043 32.1965 27.2718 32.1965 28.4651H34.1965C34.1965 26.8313 33.7169 25.5571 32.7597 24.528C31.8459 23.5457 30.5583 22.8567 29.0956 22.2298L28.3077 24.0681ZM32.1965 28.4651C32.1965 29.6979 31.7258 30.5826 30.975 31.1814C30.1977 31.8015 29.0363 32.1775 27.5902 32.1775V34.1775C29.358 34.1775 30.9998 33.7199 32.2221 32.745C33.471 31.7489 34.1965 30.2775 34.1965 28.4651H32.1965ZM27.5902 32.1775C24.8144 32.1775 23.1357 30.8812 22.3204 29.2702L20.5359 30.1733C21.7019 32.4773 24.0831 34.1775 27.5902 34.1775V32.1775Z" fill="black"/>
</g>
</g>
<defs>
<clipPath id="clip0">
<rect width="36" height="36" fill="white"/>
</clipPath>
</defs>
</svg>
