<svg width="36" height="36" viewBox="0 0 36 36" fill="none" xmlns="http://www.w3.org/2000/svg">
<g clip-path="url(#clip0)">
<path d="M35.5 0.5H0.5V35.5H35.5V0.5Z" stroke="black" stroke-width="1.5"/>
<path fill-rule="evenodd" clip-rule="evenodd" d="M10.0226 9.00002C9.67754 8.9991 9.33379 9.0357 9 9.10889V9.14699H9.0495C9.28856 9.44859 9.55511 9.73432 9.84676 10.0016C10.0474 10.3348 10.2219 10.6669 10.4213 11L10.4708 10.9575C10.6558 10.8348 10.8007 10.6748 10.8918 10.4926C10.9829 10.3105 11.0173 10.1119 10.9918 9.91563C10.8827 9.77504 10.7827 9.62967 10.6922 9.48014C10.5424 9.2722 10.218 9.16768 10.0187 9.00111" fill="black"/>
<path fill-rule="evenodd" clip-rule="evenodd" d="M30.6119 27.1728C29.2544 27.0761 27.8922 27.2755 26.6171 27.7574C26.3082 27.8828 25.8153 27.8828 25.7723 28.2787C25.938 28.4455 25.9574 28.7149 26.1027 28.9472C26.3845 29.4308 26.7468 29.8614 27.1735 30.2199C27.604 30.5537 28.0344 30.8863 28.4918 31.1786C29.2936 31.6814 30.2008 31.9726 30.9821 32.4731C31.4363 32.7654 31.8883 33.1406 32.3424 33.4547C32.5684 33.6216 32.7116 33.8909 33 34V33.9367C32.9153 33.705 32.8105 33.4813 32.6868 33.2682C32.4813 33.061 32.2746 32.8723 32.068 32.664C31.4643 31.8551 30.7421 31.1445 29.9264 30.5569C29.2667 30.0967 27.8246 29.4663 27.5588 28.7029L27.5168 28.6604C27.9995 28.5911 28.4752 28.4787 28.9384 28.3245C29.638 28.1369 30.2761 28.1794 30.9961 27.9973C31.3265 27.9133 31.9238 27.705 31.9238 27.705V27.3778C31.5557 27.007 31.2921 26.5108 30.9046 26.1607C29.8506 25.2283 28.7273 24.3795 27.5448 23.6218C26.913 23.2084 26.0984 22.9423 25.4257 22.59C25.1825 22.4657 24.78 22.4046 24.6326 22.1974C24.2981 21.7001 24.018 21.1673 23.7975 20.6084C23.1954 19.4336 22.6385 18.2356 22.1283 17.017C21.8276 16.213 21.4808 15.4276 21.0897 14.6646C19.2025 11.4129 16.4783 8.74236 13.2088 6.9387C12.3838 6.53404 11.5067 6.24913 10.6033 6.09239C10.0932 6.07058 9.58522 6.03022 9.07618 6.01059C8.74757 5.79243 8.43502 5.55041 8.14096 5.28643C6.97652 4.53936 3.9847 2.93398 3.12804 5.05958C2.57918 6.40212 3.9438 7.72176 4.41195 8.40339C4.80669 8.88401 5.15449 9.40229 5.45047 9.95097C5.59361 10.3021 5.6345 10.674 5.77333 11.0416C6.07207 11.9851 6.42678 12.9094 6.83554 13.8095C7.05416 14.2544 7.306 14.6817 7.58887 15.0877C7.75353 15.3157 8.03765 15.4149 8.09899 15.7912C7.8733 16.2828 7.71541 16.8035 7.62977 17.3388C7.27403 18.4772 7.1431 19.6756 7.24448 20.8654C7.34586 22.0551 7.67755 23.213 8.2206 24.2729C8.54346 24.7887 9.32047 25.924 10.359 25.49C11.2748 25.1192 11.0714 23.9424 11.3362 22.9118C11.3965 22.662 11.3566 22.4984 11.4782 22.3337V22.5344C11.4782 22.5344 11.998 23.6916 12.2563 24.2794C12.9587 25.358 13.8313 26.3123 14.8392 27.1041C15.2379 27.4568 15.559 27.8904 15.7819 28.3768V28.7509H16.2415C16.2319 28.5822 16.1858 28.4178 16.1063 28.2692C16.0269 28.1207 15.9162 27.9917 15.7819 27.8915C15.4051 27.4984 15.06 27.0754 14.7499 26.6264C13.9075 25.4106 13.1646 24.127 12.5286 22.7885C12.2058 22.1342 11.9335 21.4165 11.6752 20.7633C11.5568 20.5113 11.5568 20.1307 11.3577 19.9998C10.9901 20.4406 10.6711 20.9208 10.4064 21.4318C10.085 22.4647 9.89795 23.5356 9.84996 24.6175C9.7714 24.6393 9.81014 24.6175 9.7714 24.6589C9.13752 24.4899 8.91905 23.7952 8.68014 23.2062C8.06295 21.3899 8.00069 19.4271 8.50149 17.5743C8.63924 17.1326 9.23653 15.741 8.99761 15.3189C8.87816 14.9165 8.48104 14.6864 8.26365 14.369C7.98612 13.9421 7.74731 13.4905 7.55013 13.0199C7.07768 11.8464 6.83877 10.5377 6.32434 9.35549C6.03958 8.78692 5.70801 8.24369 5.33317 7.73158C4.91853 7.22001 4.55277 6.66969 4.24083 6.08803C4.14182 5.85573 4.00299 5.47619 4.16119 5.22317C4.17187 5.15289 4.20485 5.08804 4.25514 5.03845C4.30544 4.98887 4.37031 4.95723 4.43993 4.94834C4.69606 4.71713 5.4311 5.0116 5.68831 5.13811C6.37961 5.4139 7.03808 5.76766 7.65129 6.19273C7.92895 6.4043 8.58328 6.93979 8.58328 6.93979H8.77699C9.43563 7.08484 10.176 6.98015 10.7959 7.16882C11.8397 7.52141 12.8357 8.00504 13.7609 8.60843C16.4876 10.3699 18.7043 12.8331 20.1847 15.7465C20.4322 16.2252 20.5366 16.6648 20.7626 17.1643C21.1931 18.1894 21.7312 19.2364 22.1616 20.2332C22.5414 21.2195 23.0325 22.1578 23.6253 23.0296C23.9331 23.4658 25.1696 23.697 25.726 23.926C26.2092 24.0954 26.6833 24.2902 27.1466 24.5095C27.8472 24.9458 28.5456 25.4485 29.2053 25.9273C29.5336 26.1781 30.5635 26.6995 30.6259 27.1172" fill="black"/>
</g>
<defs>
<clipPath id="clip0">
<rect width="36" height="36" fill="white"/>
</clipPath>
</defs>
</svg>
