<svg width="36" height="36" viewBox="0 0 36 36" fill="none" xmlns="http://www.w3.org/2000/svg">
<path d="M0 0V36H36V0H0ZM1.49962 1.53818H34.4993V34.4607H1.49962V1.53818ZM8.70075 8.43172C8.70075 8.32902 8.91225 8.25171 9.03488 8.25171C10.3234 8.19579 11.613 8.16964 12.9026 8.17324C17.0629 8.17324 18.6795 10.5111 18.6795 13.5044C18.6795 17.4173 15.9143 19.094 12.5269 19.094C11.9531 19.094 11.7596 19.064 11.3614 19.064V24.9777C11.3614 25.1035 11.3141 25.1577 11.1915 25.1577H8.87063C8.748 25.1577 8.70075 25.1093 8.70075 24.9835V8.43172ZM11.3614 16.6061C11.7067 16.6303 11.9824 16.6303 12.5798 16.6303C14.3314 16.6303 15.984 15.9934 15.984 13.5598C15.984 11.6062 14.8005 10.6149 12.7969 10.6149C12.2051 10.6149 11.637 10.6392 11.3614 10.6634V16.6061ZM24.2752 14.7725C23.0861 14.7725 22.6879 15.3853 22.6879 15.8907C22.6879 16.4492 22.9579 16.8288 24.5453 17.67C26.8954 18.8424 27.639 19.9536 27.639 21.6061C27.639 24.0638 25.8052 25.3862 23.3325 25.3862C22.0196 25.3862 20.9014 25.1035 20.2568 24.725C20.1634 24.6766 20.1398 24.5992 20.1398 24.4723V22.213C20.1398 22.063 20.2106 22.0088 20.3096 22.0872C21.2075 22.686 22.2559 23.0036 23.3269 23.0011C24.516 23.0011 25.0087 22.4957 25.0087 21.8057C25.0087 21.2472 24.6634 20.766 23.157 19.9548C21.024 18.9093 20.133 17.8454 20.133 16.0661C20.133 14.0825 21.645 12.4358 24.264 12.4358C25.5533 12.4358 26.4611 12.6401 26.9595 12.8628C27.0821 12.9412 27.1057 13.067 27.1057 13.1697V15.2791C27.1057 15.4049 27.0292 15.4833 26.883 15.4291C26.2147 15.0264 25.2304 14.7679 24.2696 14.7679L24.2752 14.7725Z" fill="black"/>
</svg>
