<svg width="36" height="36" viewBox="0 0 36 36" fill="none" xmlns="http://www.w3.org/2000/svg">
<g clip-path="url(#clip0)">
<path d="M35.5 0.5H0.5V35.5H35.5V0.5Z" stroke="black" stroke-width="1.5"/>
<path d="M13.6472 23.8889C13.5112 22.9893 13.1374 22.2586 12.23 21.9052C11.8749 21.7674 11.5673 21.5157 11.2173 21.3572C10.8197 21.1762 10.4152 21.0039 9.99554 20.8919C9.67779 20.8057 9.38212 20.9505 9.19351 21.2331C9.01509 21.4985 9.14423 21.7484 9.29376 21.9707C9.46199 22.2206 9.6489 22.4584 9.83751 22.6928C10.1502 23.0823 10.4815 23.4563 10.7857 23.851C11.0762 24.2284 11.3243 24.6472 11.2818 25.147C11.1884 26.2431 10.699 27.1514 9.91058 27.8906C9.82392 27.9699 9.67099 28.0268 9.55884 28.0164C9.05587 27.9613 8.59878 27.7683 8.23005 27.4115C7.80695 27.0031 7.87152 26.5223 8.37788 26.2241C8.49853 26.1535 8.62427 26.088 8.73472 26.0018C9.04398 25.7657 9.14763 25.3624 8.97941 25.0126C8.89954 24.8437 8.80949 24.661 8.67695 24.5386C8.02954 23.9406 7.39398 23.3236 6.7007 22.7791C5.02011 21.4554 4.15697 19.7045 4.02437 17.5847C3.87484 15.2305 4.41349 13.0331 5.63863 11.0219C6.10252 10.2584 6.64287 9.53108 7.47209 9.15372C8.03623 8.89693 8.65474 8.75217 9.25802 8.59189C10.9182 8.14898 12.5936 7.81636 14.3218 8.11279C15.8103 8.36613 16.8995 9.14338 17.3991 10.6272C17.727 11.5975 17.8052 12.6005 17.7033 13.6277C17.5027 15.6459 16.0329 17.4503 14.1161 17.9845C13.2852 18.2154 12.8315 18.0862 12.332 17.3848C11.9734 16.8798 11.6761 16.3301 11.3549 15.7975C11.3073 15.7182 11.2734 15.6268 11.2326 15.5424C11.1935 15.458 11.151 15.377 11.1102 15.2925C11.2309 16.168 11.4314 17.0108 11.9021 17.7621C12.1569 18.1706 12.4968 18.4722 12.9947 18.517C14.8264 18.6842 16.3728 18.0741 17.4705 16.5798C18.699 14.9081 18.9692 12.9848 18.614 10.9598C18.5444 10.56 18.4271 10.1687 18.3439 9.77064C18.2878 9.51385 18.388 9.32428 18.6378 9.23466C18.7534 9.19502 18.8723 9.16228 18.9879 9.13815C20.4866 8.81071 22.0023 8.70213 23.5299 8.85896C25.2632 9.03475 26.9029 9.5173 28.3694 10.4945C30.6651 12.0266 32.0873 14.2068 32.8605 16.8436C32.9726 17.2262 32.9896 17.645 32.9998 18.0483C33.0066 18.3172 32.8367 18.3878 32.6345 18.2189C32.4119 18.0345 32.208 17.8243 32.016 17.6071C31.8375 17.4021 31.6948 17.1677 31.5215 16.9523C31.3872 16.7834 31.27 16.8092 31.2054 17.0195C31.1646 17.147 31.129 17.2728 31.0933 17.4003C30.6923 18.8514 30.0602 20.175 29.0355 21.2901C28.8928 21.4469 28.7653 21.6796 28.7484 21.8864C28.7042 22.4586 28.6719 23.0428 28.7263 23.6132C28.8384 24.8386 29.0134 26.0587 29.1494 27.2824C29.2258 27.9735 29.0066 28.3802 28.366 28.6198C27.9157 28.787 27.4332 28.9093 26.9574 28.9438C26.1995 28.9972 25.4349 28.9593 24.6736 28.9593C24.6532 28.0976 24.7263 27.2514 23.9277 26.7895C24.0823 26.1501 24.2607 25.5435 24.3678 24.9231C24.4561 24.4078 24.3814 23.9011 24.0245 23.4789C23.6898 23.0808 23.2701 22.9722 22.886 23.1997C21.7288 23.8839 20.5257 23.8873 19.3006 23.4392C18.7381 23.2324 18.3456 23.3496 18.0346 23.8701C17.6999 24.4302 17.5588 25.0592 17.5962 25.6952C17.6438 26.4966 17.7814 27.2893 17.8868 28.0873C17.9445 28.5336 17.8953 28.6491 17.4586 28.7629C16.4883 29.0127 15.5011 29.0403 14.5087 28.9593C14.456 28.9541 14.4033 28.9317 14.3693 28.9231C14.3201 28.0873 14.4067 27.2186 13.4246 26.774C13.8596 25.8382 13.8001 24.8679 13.6506 23.8976L13.6472 23.889V23.8889ZM7.7814 20.6093C7.92583 20.4714 8.04138 20.256 8.08216 20.0578C8.18412 19.5615 7.81708 18.8962 7.39228 18.7118C7.16628 18.6119 6.96917 18.6481 6.80945 18.8308C6.42033 19.2771 6.0363 19.7286 5.65392 20.182C5.58935 20.2595 5.53158 20.3508 5.4857 20.4422C5.33277 20.7403 5.42283 20.9575 5.74908 21.0385C5.94619 21.0885 6.15009 21.0988 6.3523 21.1281C6.87906 21.0764 7.38882 20.9868 7.78134 20.6111V20.6094L7.7814 20.6093ZM7.82558 15.6476C7.82388 15.2926 7.53162 14.9961 7.18667 14.9944C6.83154 14.9927 6.52568 15.315 6.53757 15.67C6.55287 16.0267 6.84513 16.3128 7.19517 16.3059C7.54861 16.3008 7.83068 16.0078 7.82728 15.6493L7.82558 15.6476Z" fill="black"/>
</g>
<defs>
<clipPath id="clip0">
<rect width="36" height="36" fill="white"/>
</clipPath>
</defs>
</svg>
