<svg width="36" height="36" viewBox="0 0 36 36" fill="none" xmlns="http://www.w3.org/2000/svg">
<path d="M0 0V36H36V0H0ZM1.49962 1.53818H34.4993V34.4607H1.49962V1.53818ZM9.4455 8.42595C9.4455 8.32325 9.46913 8.24594 9.59738 8.24594C10.8818 8.19226 12.1673 8.16802 13.4528 8.17324C17.613 8.17324 19.4175 10.5111 19.4175 13.5044C19.4175 17.4104 16.6635 19.0882 13.2705 19.0882C12.7024 19.0882 12.5033 19.064 12.105 19.064V24.9777C12.105 25.1035 12.0578 25.152 11.9351 25.152H9.621C9.49163 25.152 9.4455 25.1035 9.4455 24.9777V8.42595ZM12.105 16.5992C12.4571 16.6234 12.726 16.6234 13.3234 16.6234C15.075 16.6234 16.722 15.9922 16.722 13.5528C16.722 11.5992 15.5498 10.608 13.5405 10.608C12.9488 10.608 12.3806 10.638 12.105 10.6623V16.5992ZM21.7091 15.2052C21.7091 15.0252 21.7091 14.5683 21.6326 13.7086C21.6326 13.5828 21.6506 13.5528 21.7496 13.5044C23.5004 12.8135 25.3584 12.4531 27.234 12.4404C27.3566 12.4404 27.4095 12.4647 27.4095 12.5905V14.8268C27.4095 14.9525 27.369 14.9768 27.2453 14.9768C26.2899 14.9156 25.3312 15.0193 24.4091 15.2837V24.9777C24.4091 25.1035 24.3563 25.152 24.2336 25.152H21.8779C21.7553 25.152 21.708 25.1035 21.708 24.9777L21.7091 15.2052Z" fill="black"/>
</svg>
