<svg width="36" height="36" viewBox="0 0 36 36" fill="none" xmlns="http://www.w3.org/2000/svg">
<path d="M22.5872 9.25682H30.0732V11.0891H22.5872V9.25682ZM15.0863 16.5063C16.7411 15.7075 17.6079 14.4923 17.6079 12.6147C17.6079 8.90098 14.8687 8 11.7054 8H3V26.6404H11.9493C15.3039 26.6404 18.4522 25.0126 18.4522 21.2269C18.4522 18.8874 17.3565 17.1574 15.0863 16.5063V16.5063ZM7.06004 11.1799H10.8687C12.3358 11.1799 13.6529 11.5925 13.6529 13.3112C13.6529 14.8936 12.6285 15.5296 11.1764 15.5296H7.06004V11.1799ZM11.394 23.4756H7.05629V18.3423H11.4803C13.2664 18.3423 14.3959 19.0956 14.3959 21.0036C14.3959 22.8813 13.0488 23.4756 11.394 23.4756V23.4756ZM33 20.0875C33 16.0936 30.6848 12.7661 26.4972 12.7661C22.4259 12.7661 19.6567 15.8589 19.6567 19.9133C19.6567 24.1154 22.2796 27 26.4972 27C29.6904 27 31.758 25.5501 32.7523 22.4573H29.5141C29.1613 23.6119 27.728 24.2176 26.6135 24.2176C24.4597 24.2176 23.334 22.9456 23.334 20.784H32.9737C32.985 20.5607 33 20.326 33 20.0875V20.0875ZM23.334 18.4445C23.4503 16.6691 24.6248 15.5599 26.3809 15.5599C28.227 15.5599 29.1501 16.6539 29.3114 18.4445H23.334Z" fill="black"/>
<rect x="0.5" y="0.5" width="35" height="35" stroke="black"/>
</svg>
