<svg width="36" height="36" viewBox="0 0 36 36" fill="none" xmlns="http://www.w3.org/2000/svg">
<path d="M18 3C9.72837 3 3 9.72837 3 18C3 26.2716 9.72837 33 18 33C26.2716 33 33 26.2716 33 18C33 9.72837 26.2716 3 18 3ZM27.9195 9.91586C29.7043 12.0974 30.7861 14.8738 30.8113 17.899C30.3894 17.8089 26.1526 16.9507 21.8906 17.488C21.8005 17.268 21.7103 17.0481 21.6166 16.8281C21.3498 16.2043 21.0649 15.5805 20.7656 14.9712C25.5 13.0349 27.649 10.2837 27.9195 9.91586ZM18 5.20673C21.256 5.20673 24.2308 6.42909 26.4916 8.43389C26.2608 8.76202 24.3317 11.3546 19.7776 13.0637C17.6791 9.20553 15.3534 6.03966 14.9964 5.5637C15.9808 5.32572 16.9868 5.20673 18 5.20673V5.20673ZM12.5517 6.42548C12.8906 6.88702 15.1803 10.0637 17.3005 13.8353C11.3077 15.4255 6.02885 15.4038 5.45553 15.3966C6.28846 11.4195 8.96755 8.11659 12.5517 6.42548ZM5.1887 18.018C5.1887 17.8882 5.19231 17.7548 5.19591 17.625C5.75481 17.6358 11.9639 17.7151 18.3642 15.8005C18.732 16.518 19.0817 17.2464 19.4026 17.9748C19.2332 18.0216 19.0637 18.0721 18.8978 18.1262C12.2885 20.268 8.77284 26.0913 8.48077 26.5853C6.4363 24.3137 5.1887 21.3101 5.1887 18.018ZM18 30.8293C15.0361 30.8293 12.3065 29.8197 10.1358 28.125C10.3666 27.6526 12.9591 22.6442 20.1851 20.1238L20.268 20.095C22.0673 24.768 22.8101 28.6875 23.0012 29.8125C21.4206 30.4881 19.7189 30.834 18 30.8293V30.8293ZM25.1575 28.6406C25.0276 27.8618 24.3462 24.1118 22.6695 19.5072C26.6863 18.8654 30.2127 19.9183 30.649 20.0553C30.0793 23.6178 28.0349 26.6971 25.1575 28.6406V28.6406Z" fill="black"/>
<rect x="0.5" y="0.5" width="35" height="35" stroke="black"/>
</svg>
