<svg width="36" height="36" viewBox="0 0 36 36" fill="none" xmlns="http://www.w3.org/2000/svg">
<path fill-rule="evenodd" clip-rule="evenodd" d="M11.7202 9.78027C11.6592 8.07715 10.2544 7.09326 8.82861 7.07715C7.17627 7.11279 5.91748 8.28271 5.89746 9.78027C5.96143 11.458 7.34009 12.4663 8.75171 12.4829H8.79126C10.4312 12.4478 11.7507 11.2944 11.7202 9.78027ZM28.3887 15.9458C27.1731 14.7065 25.6936 14.2412 24.126 14.2319C22.9766 14.251 21.9119 14.4937 21.0256 15.126C20.3721 15.603 19.885 16.1953 19.4458 16.8203V14.6143H14.2712C14.2966 15.0454 14.3086 15.8823 14.3086 17.1255C14.3184 21.502 14.291 25.8779 14.2712 30.2544H19.4458V21.5005C19.4534 21.064 19.4766 20.6265 19.637 20.2456C20.2246 19.063 21.083 18.356 22.3 18.3428C24.3767 18.4062 24.9143 20.3135 24.9258 21.8828V30.2544H30.1025V21.272C30.0574 19.2969 29.6519 17.3545 28.3887 15.9458ZM11.3774 14.6143H6.20288V30.2544H11.3774V14.6143Z" fill="black"/>
<rect x="0.5" y="0.5" width="35" height="35" stroke="black"/>
</svg>
