<svg width="48" height="48" viewBox="0 0 48 48" fill="none" xmlns="http://www.w3.org/2000/svg">
<path d="M23.196 19.2C20.748 14.85 18.114 11.196 17.724 10.662C13.596 12.612 10.506 16.416 9.552 20.994C10.212 21.006 16.296 21.036 23.196 19.2ZM27.186 20.508C27.528 21.21 27.858 21.924 28.164 22.644C28.272 22.896 28.38 23.148 28.482 23.406C33.39 22.788 38.274 23.778 38.76 23.88C38.73 20.394 37.482 17.196 35.43 14.682C35.112 15.108 32.64 18.282 27.186 20.508ZM46.08 0H1.92C0.858 0 0 0.858 0 1.92V46.08C0 47.142 0.858 48 1.92 48H46.08C47.142 48 48 47.142 48 46.08V1.92C48 0.858 47.142 0 46.08 0ZM24 41.28C14.472 41.28 6.72 33.528 6.72 24C6.72 14.472 14.472 6.72 24 6.72C33.528 6.72 41.28 14.472 41.28 24C41.28 33.528 33.528 41.28 24 41.28ZM29.382 25.734C31.314 31.038 32.1 35.358 32.25 36.258C35.562 34.02 37.92 30.474 38.574 26.364C38.07 26.208 34.008 24.996 29.382 25.734ZM25.032 24.15C25.224 24.09 25.416 24.03 25.614 23.976C25.242 23.136 24.84 22.296 24.42 21.474C17.052 23.682 9.894 23.586 9.252 23.574C9.246 23.724 9.246 23.874 9.246 24.024C9.246 27.816 10.68 31.278 13.038 33.894C13.368 33.318 17.418 26.61 25.032 24.15ZM33.786 12.978C32.0094 11.3973 29.876 10.2708 27.5688 9.69499C25.2615 9.11921 22.849 9.11133 20.538 9.672C20.946 10.218 23.628 13.866 26.046 18.312C31.296 16.344 33.516 13.356 33.786 12.978ZM26.52 26.448C18.198 29.346 15.204 35.124 14.94 35.664C17.442 37.614 20.586 38.778 24 38.778C26.046 38.778 27.996 38.364 29.766 37.608C29.544 36.312 28.692 31.8 26.616 26.412L26.52 26.448Z" fill="#589FB3"/>
</svg>
