<svg width="36" height="36" viewBox="0 0 36 36" fill="none" xmlns="http://www.w3.org/2000/svg">
<path fill-rule="evenodd" clip-rule="evenodd" d="M0.316208 0.390999C0.4285 0.267902 0.564983 0.169589 0.717016 0.102285C0.86905 0.0349806 1.03332 0.000150676 1.19944 0L34.8005 0C34.9666 7.77676e-05 35.1308 0.0348053 35.2828 0.101986C35.4348 0.169167 35.5713 0.267339 35.6836 0.390293C35.796 0.513247 35.8817 0.658307 35.9354 0.816298C35.9892 0.97429 36.0097 1.14177 35.9958 1.30816L33.5957 30.0683C33.5758 30.3033 33.488 30.5273 33.343 30.7126C33.1979 30.8979 33.0021 31.0364 32.7797 31.111L18.3792 35.9382C18.133 36.0206 17.8669 36.0206 17.6208 35.9382L3.2203 31.111C2.99786 31.0364 2.80203 30.8979 2.657 30.7126C2.51198 30.5273 2.42412 30.3033 2.40427 30.0683L0.00419745 1.30816C-0.0096669 1.1419 0.0109021 0.974553 0.0646054 0.816691C0.118309 0.658829 0.20398 0.513881 0.316208 0.390999ZM26.4002 7.24073H9.59971V9.65431H24.0002V14.4815H14.3999V16.895H24.0002V22.0601L18 24.0706L11.9998 22.0601V19.3086H9.59971V23.7979L18 26.6145L26.4002 23.7979V7.24073Z" fill="#264DE4"/>
<path fill-rule="evenodd" clip-rule="evenodd" d="M36 1.20795C35.9999 1.24134 35.9985 1.27477 35.9957 1.30816L33.5956 30.0683C33.5758 30.3033 33.4879 30.5273 33.3429 30.7126C33.1979 30.8979 33.002 31.0364 32.7796 31.111L31.5299 31.5299L24.4513 24.4513L26.4002 23.7979V7.24073H9.59966V9.59971L0.352661 0.35271C0.457551 0.247415 0.581045 0.162457 0.716968 0.102285C0.869002 0.0349806 1.03327 0.000150676 1.19939 0H34.8005C34.9665 7.77676e-05 35.1307 0.0348053 35.2827 0.101986C35.4347 0.169167 35.5712 0.267339 35.6836 0.390293C35.7959 0.513247 35.8817 0.658307 35.9354 0.816298C35.9781 0.941848 35.9998 1.07339 36 1.20561C36 1.20639 36 1.20717 36 1.20795ZM9.65426 9.65431L14.4814 14.4815H24.0001V9.65431H9.65426ZM16.895 16.895L22.547 22.547L24.0001 22.0601V16.895H16.895Z" fill="white" fill-opacity="0.25"/>
</svg>
