<svg width="36" height="36" viewBox="0 0 36 36" fill="none" xmlns="http://www.w3.org/2000/svg">
<path fill-rule="evenodd" clip-rule="evenodd" d="M0.316208 0.386409C0.428712 0.264437 0.565289 0.167123 0.717313 0.100613C0.869336 0.0341039 1.0335 -0.000155067 1.19944 5.27631e-07H34.8005C34.9666 7.78594e-05 35.1308 0.0346108 35.2828 0.101415C35.4348 0.168219 35.5713 0.265841 35.6836 0.388106C35.796 0.510371 35.8817 0.654619 35.9354 0.811725C35.9892 0.968831 36.0097 1.13538 35.9958 1.30083L33.5957 30.1015C33.5758 30.3351 33.488 30.5578 33.343 30.7421C33.1979 30.9263 33.0021 31.0641 32.7797 31.1383L18.3792 35.9384C18.1331 36.0205 17.8669 36.0205 17.6208 35.9384L3.2203 31.1383C2.99751 31.0639 2.80143 30.9258 2.65638 30.7411C2.51132 30.5564 2.42367 30.3331 2.40427 30.0991L0.00419745 1.29843C-0.0096669 1.1331 0.0109021 0.966692 0.0646054 0.809715C0.118309 0.652738 0.20398 0.508601 0.316208 0.386409ZM26.4002 7.20016H9.59971V16.8004H24.0002V21.9365L18 23.9357L11.9998 21.9365V19.2004H9.59971V23.6645L18 26.4654L26.4002 23.6645V14.4003H11.9998V9.60021H26.4002V7.20016Z" fill="#E44D26"/>
<path fill-rule="evenodd" clip-rule="evenodd" d="M34.8005 0H1.1994H1.19716C1.03199 0.000154354 0.868619 0.0344037 0.717281 0.100613C0.580436 0.160482 0.456107 0.245312 0.350586 0.350618L9.59968 9.59971V7.20016H26.4002V9.60021H11.9998V11.9998L14.4003 14.4003H26.4002V23.6645L24.3486 24.3486L31.5486 31.5486L32.7796 31.1383C33.0021 31.0641 33.1979 30.9263 33.3429 30.7421C33.4879 30.5578 33.5758 30.3351 33.5956 30.1015L35.9957 1.30083C36.0097 1.13538 35.9891 0.968831 35.9354 0.811725C35.8817 0.654619 35.7959 0.510371 35.6836 0.388106C35.5713 0.265841 35.4348 0.168219 35.2828 0.101415C35.1307 0.0346108 34.9665 7.78594e-05 34.8005 0ZM22.4522 22.4522L24.0001 21.9365V16.8004H16.8003L22.4522 22.4522Z" fill="white" fill-opacity="0.25"/>
</svg>
