<svg width="36" height="36" viewBox="0 0 36 36" fill="none" xmlns="http://www.w3.org/2000/svg">
<path d="M0 0H36V36H0V0ZM33.0525 27.4163C32.7892 25.7693 31.716 24.3923 28.5469 23.1041C27.4455 22.5889 26.2148 22.2255 25.8514 21.393C25.7164 20.9003 25.6928 20.6314 25.7805 20.3377C26.0089 19.3646 27.1519 19.0777 28.0541 19.3477C28.6403 19.5289 29.1791 19.9744 29.5189 20.6955C31.0714 19.6819 31.0714 19.6819 32.1502 19.008C31.7464 18.3814 31.5473 18.1057 31.2716 17.8425C30.3278 16.7816 29.0689 16.2428 27.0236 16.29L25.9627 16.425C24.9491 16.6714 23.9828 17.2103 23.3966 17.9314C21.6911 19.8652 22.1839 23.2402 24.2516 24.6409C26.2969 26.1698 29.2905 26.5039 29.6775 27.9461C30.0352 29.7045 28.3714 30.267 26.7244 30.0611C25.5116 29.7911 24.8377 29.1825 24.093 28.0575L21.3503 29.6336C21.6608 30.3547 22.0241 30.6652 22.563 31.2975C25.1707 33.9289 31.698 33.7939 32.8691 29.7911C32.9096 29.6561 33.2269 28.7303 32.9805 27.3184L33.0525 27.4163ZM19.5761 16.5465H16.2068C16.2068 19.4524 16.1888 22.3414 16.1888 25.254C16.1888 27.1001 16.2821 28.7989 15.984 29.3209C15.4856 30.3525 14.2144 30.2231 13.6339 30.042C13.0421 29.7495 12.7373 29.3445 12.3919 28.7584C12.2917 28.5998 12.222 28.4659 12.1984 28.4659L9.46238 30.1534C9.91913 31.0972 10.5874 31.9117 11.4491 32.427C12.7327 33.1942 14.4551 33.4406 16.2596 33.0368C17.4319 32.697 18.4455 31.9995 18.972 30.9217C19.7393 29.5268 19.575 27.8167 19.5694 25.8997C19.5874 22.8172 19.5694 19.7359 19.5694 16.6297L19.5761 16.5465Z" fill="#F7DF1E"/>
<path fill-rule="evenodd" clip-rule="evenodd" d="M36 36V0H0L16.5465 16.5465H19.5761L19.5694 16.6297C19.5694 17.6131 19.5712 18.5939 19.5731 19.5731L22.7482 22.7482C22.097 21.1832 22.25 19.2316 23.3966 17.9314C23.9828 17.2103 24.9491 16.6714 25.9627 16.425L27.0236 16.29C29.0689 16.2428 30.3278 16.7816 31.2716 17.8425C31.5473 18.1057 31.7464 18.3814 32.1502 19.008C31.7112 19.2822 31.4509 19.4448 31.1918 19.6096C30.8143 19.8497 30.4396 20.0943 29.5189 20.6955C29.1791 19.9744 28.6403 19.5289 28.0541 19.3477C27.1519 19.0777 26.0089 19.3646 25.7805 20.3377C25.6928 20.6314 25.7164 20.9003 25.8514 21.393C26.1429 22.0609 26.9928 22.4269 27.8863 22.8116C28.1064 22.9064 28.3292 23.0023 28.5469 23.1041C31.716 24.3923 32.7892 25.7693 33.0525 27.4163L32.9805 27.3184C33.2164 28.6703 32.9355 29.5767 32.8757 29.7697C32.8731 29.7782 32.8708 29.7854 32.8691 29.7911C32.6449 30.5575 32.2244 31.182 31.6726 31.6726L36 36ZM29.3856 29.3856C29.6768 29.0437 29.8045 28.5702 29.6775 27.9461C29.4529 27.109 28.3501 26.6452 27.0644 26.1045C26.4899 25.8628 25.8789 25.6058 25.2933 25.2933L29.3856 29.3856Z" fill="white" fill-opacity="0.25"/>
</svg>
