<svg width="36" height="36" viewBox="0 0 36 36" fill="none" xmlns="http://www.w3.org/2000/svg">
<path d="M9 7.875C9 7.57031 9.11133 7.30664 9.33398 7.08398C9.55664 6.86133 9.82031 6.75 10.125 6.75C10.4297 6.75 10.6934 6.86133 10.916 7.08398C11.1387 7.30664 11.25 7.57031 11.25 7.875C11.25 8.17969 11.1387 8.44336 10.916 8.66602C10.6934 8.88867 10.4297 9 10.125 9C9.82031 9 9.55664 8.88867 9.33398 8.66602C9.11133 8.44336 9 8.17969 9 7.875ZM36 36C35.8828 35.9531 35.7129 35.8887 35.4902 35.8066C35.2676 35.7246 34.8457 35.543 34.2246 35.2617C33.6035 34.9805 33 34.6816 32.4141 34.3652C31.8281 34.0488 31.1777 33.627 30.4629 33.0996C29.748 32.5723 29.1211 32.0156 28.582 31.4297C28.1133 31.1016 27.4219 30.4453 26.5078 29.4609C27 29.1328 27.7559 28.8574 28.7754 28.6348C29.7949 28.4121 30.6914 28.2656 31.4648 28.1953L32.625 28.125C32.625 27.75 32.291 27.3574 31.623 26.9473C30.9551 26.5371 30.1758 26.1621 29.2852 25.8223C28.3945 25.4824 27.4277 25.0078 26.3848 24.3984C25.3418 23.7891 24.5273 23.1445 23.9414 22.4648C23.4961 21.9492 23.0859 21.3809 22.7109 20.7598C22.3359 20.1387 21.9023 19.3301 21.4102 18.334C20.918 17.3379 20.6367 16.7695 20.5664 16.6289C20.0977 15.9023 19.4238 14.918 18.5449 13.6758C17.666 12.4336 17.1094 11.625 16.875 11.25C16.1484 10.125 14.877 8.71875 13.0605 7.03125C11.2441 5.34375 9.89062 4.5 9 4.5C8.41406 4.5 7.875 4.61719 7.38281 4.85156C4.99219 3.11719 3.65625 2.25 3.375 2.25C3.07031 2.25 2.80664 2.36133 2.58398 2.58398C2.36133 2.80664 2.25 3.07031 2.25 3.375C2.25 3.5625 2.61328 4.21875 3.33984 5.34375C4.06641 6.46875 4.83984 7.59375 5.66016 8.71875C5.70703 9.11719 5.76562 9.51562 5.83594 9.91406C5.90625 10.3125 5.9707 10.6523 6.0293 10.9336C6.08789 11.2148 6.19336 11.5488 6.3457 11.9355C6.49805 12.3223 6.60938 12.6035 6.67969 12.7793C6.75 12.9551 6.89648 13.2422 7.11914 13.6406C7.3418 14.0391 7.47656 14.2793 7.52344 14.3613C7.57031 14.4434 7.72266 14.6953 7.98047 15.1172C8.23828 15.5391 8.37891 15.7617 8.40234 15.7852C8.19141 15.7617 8.01562 15.75 7.875 15.75C7.54688 15.75 7.27734 16.2715 7.06641 17.3145C6.85547 18.3574 6.75 19.7109 6.75 21.375C6.75 21.75 7.05469 22.4766 7.66406 23.5547C8.39062 24.8203 8.82422 25.0312 8.96484 24.1875C8.98828 24.0469 9 23.8594 9 23.625C9 21.7031 9.58594 20.6016 10.7578 20.3203C12.1406 23.0625 13.3242 25.3008 14.3086 27.0352C15.293 28.7695 16.2656 30.2344 17.2266 31.4297C15.2812 29.9297 13.207 27.457 11.0039 24.0117C10.793 24.8086 10.5059 25.5059 10.1426 26.1035C9.7793 26.7012 9.39844 27 9 27C8.29688 27 7.58203 26.5898 6.85547 25.7695C6.12891 24.9492 5.55469 24.0176 5.13281 22.9746C4.71094 21.9316 4.5 21.0234 4.5 20.25C4.5 19.5234 4.59375 18.6504 4.78125 17.6309C4.96875 16.6113 5.21484 15.7383 5.51953 15.0117C4.95703 14.2148 4.51758 13.4238 4.20117 12.6387C3.88477 11.8535 3.65625 10.8047 3.51562 9.49219C3.39844 9.28125 3.23438 8.97656 3.02344 8.57812C1.00781 4.89844 0 2.78906 0 2.25C0 1.64062 0.222656 1.11328 0.667969 0.667969C1.11328 0.222656 1.64062 0 2.25 0C2.74219 0 3.65625 0.257812 4.99219 0.773438C6.32812 1.28906 7.37109 1.80469 8.12109 2.32031C8.44922 2.27344 8.74219 2.25 9 2.25C10.125 2.25 11.6777 3.05859 13.6582 4.67578C15.6387 6.29297 17.0859 7.73438 18 9C18.0234 9.02344 18.293 9.39258 18.8086 10.1074C19.3242 10.8223 19.6465 11.2734 19.7754 11.4609C19.9043 11.6484 20.1914 12.0586 20.6367 12.6914C21.082 13.3242 21.3984 13.8047 21.5859 14.1328C21.7734 14.4609 22.0254 14.8828 22.3418 15.3984C22.6582 15.9141 22.916 16.3828 23.1152 16.8047C23.3145 17.2266 23.4844 17.625 23.625 18C24.0469 19.0312 24.7617 19.9922 25.7695 20.8828C26.7773 21.7734 27.8438 22.5234 28.9688 23.1328C30.0938 23.7422 31.1953 24.3457 32.2734 24.9434C33.3516 25.541 34.2422 26.2031 34.9453 26.9297C35.6484 27.6562 36 28.4297 36 29.25C35.6719 29.2734 35.2441 29.3086 34.7168 29.3555C34.1895 29.4023 33.3691 29.5371 32.2559 29.7598C31.1426 29.9824 30.3398 30.2578 29.8477 30.5859C30.3164 31.1719 31.0723 31.8691 32.1152 32.6777C33.1582 33.4863 34.0664 34.1836 34.8398 34.7695C35.6133 35.3555 36 35.7656 36 36Z" fill="#00618A"/>
<path fill-rule="evenodd" clip-rule="evenodd" d="M9.33398 7.08398C9.11133 7.30664 9 7.57031 9 7.875C9 8.17969 9.11133 8.44336 9.33398 8.66602C9.55664 8.88867 9.82031 9 10.125 9C10.4297 9 10.6934 8.88867 10.916 8.66602C11.1387 8.44336 11.25 8.17969 11.25 7.875C11.25 7.57031 11.1387 7.30664 10.916 7.08398C10.6934 6.86133 10.4297 6.75 10.125 6.75C9.82031 6.75 9.55664 6.86133 9.33398 7.08398ZM36 36C36 35.7656 35.6133 35.3555 34.8398 34.7695C34.7446 34.6974 34.6474 34.6236 34.5481 34.5481L36 36ZM36 29.25C36 28.4297 35.6484 27.6562 34.9453 26.9297C34.2422 26.2031 33.3516 25.541 32.2734 24.9434C31.1953 24.3457 30.0938 23.7422 28.9688 23.1328C27.8438 22.5234 26.7773 21.7734 25.7695 20.8828C24.7617 19.9922 24.0469 19.0312 23.625 18C23.4844 17.625 23.3145 17.2266 23.1152 16.8047C22.916 16.3828 22.6582 15.9141 22.3418 15.3984C22.0254 14.8828 21.7734 14.4609 21.5859 14.1328C21.3984 13.8047 21.082 13.3242 20.6367 12.6914C20.1914 12.0586 19.9043 11.6484 19.7754 11.4609C19.6465 11.2734 19.3242 10.8223 18.8086 10.1074C18.293 9.39258 18.0234 9.02344 18 9C17.0859 7.73438 15.6387 6.29297 13.6582 4.67578C11.6777 3.05859 10.125 2.25 9 2.25C8.74219 2.25 8.44922 2.27344 8.12109 2.32031C7.37109 1.80469 6.32812 1.28906 4.99219 0.773438C3.65625 0.257812 2.74219 0 2.25 0C1.64062 0 1.11328 0.222656 0.667969 0.667969L2.58398 2.58398C2.80664 2.36133 3.07031 2.25 3.375 2.25C3.65625 2.25 4.99219 3.11719 7.38281 4.85156C7.875 4.61719 8.41406 4.5 9 4.5C9.89062 4.5 11.2441 5.34375 13.0605 7.03125C14.877 8.71875 16.1484 10.125 16.875 11.25C17.1094 11.625 17.666 12.4336 18.5449 13.6758C19.4238 14.918 20.0977 15.9023 20.5664 16.6289C20.6367 16.7695 20.918 17.3379 21.4102 18.334C21.9023 19.3301 22.3359 20.1387 22.7109 20.7598C23.0859 21.3809 23.4961 21.9492 23.9414 22.4648C24.5273 23.1445 25.3418 23.7891 26.3848 24.3984C27.4277 25.0078 28.3945 25.4824 29.2852 25.8223C30.1758 26.1621 30.9551 26.5371 31.623 26.9473C32.291 27.3574 32.625 27.75 32.625 28.125L31.4648 28.1953C30.6914 28.2656 29.7949 28.4121 28.7754 28.6348C28.7367 28.6432 28.6983 28.6518 28.6604 28.6604L30.3263 30.3263C30.8067 30.1098 31.4499 29.921 32.2559 29.7598C33.3691 29.5371 34.1895 29.4023 34.7168 29.3555C35.2441 29.3086 35.6719 29.2734 36 29.25Z" fill="white" fill-opacity="0.25"/>
</svg>
