<svg width="36" height="26" viewBox="0 0 36 26" fill="none" xmlns="http://www.w3.org/2000/svg">
<path d="M11.9758 19.4558C11.807 18.3543 11.343 17.4595 10.2166 17.0268C9.77571 16.858 9.39391 16.5499 8.95938 16.3557C8.46579 16.1342 7.96376 15.9231 7.44274 15.786C7.04829 15.6805 6.68126 15.8577 6.44712 16.2038C6.22563 16.5288 6.38594 16.8348 6.57157 17.107C6.7804 17.413 7.01243 17.7042 7.24657 17.9912C7.63469 18.4681 8.04602 18.9261 8.4236 19.4094C8.7843 19.8715 9.09227 20.3843 9.03954 20.9963C8.92352 22.3385 8.31602 23.4506 7.33727 24.3559C7.22969 24.453 7.03985 24.5226 6.90063 24.5099C6.27626 24.4424 5.70883 24.2061 5.2511 23.7692C4.72586 23.2691 4.80602 22.6803 5.43461 22.3152C5.58438 22.2287 5.74047 22.1485 5.87758 22.043C6.26149 21.7539 6.39016 21.2601 6.18133 20.8317C6.08219 20.6249 5.9704 20.4012 5.80586 20.2514C5.00219 19.5191 4.21322 18.7636 3.35259 18.0968C1.26635 16.476 0.194854 14.3321 0.0302527 11.7363C-0.155372 8.85363 0.5133 6.16303 2.03416 3.70026C2.61002 2.76541 3.2808 1.8748 4.31018 1.41272C5.01049 1.09829 5.7783 0.921022 6.5272 0.724766C8.58813 0.182424 10.6679 -0.22486 12.8132 0.138108C14.661 0.448319 16.0132 1.40006 16.6334 3.21701C17.0405 4.40509 17.1375 5.63328 17.0109 6.89107C16.762 9.36228 14.9374 11.5717 12.558 12.2259C11.5265 12.5087 10.9633 12.3504 10.3431 11.4916C9.89806 10.8732 9.52891 10.2001 9.13024 9.54791C9.07118 9.45084 9.02899 9.339 8.97837 9.23559C8.92985 9.13219 8.87712 9.03301 8.82649 8.9296C8.97626 10.0016 9.22516 11.0336 9.80946 11.9536C10.1259 12.4538 10.5477 12.8231 11.1658 12.8779C13.4397 13.0826 15.3593 12.3356 16.722 10.5059C18.247 8.45887 18.5825 6.1038 18.1416 3.62422C18.0551 3.13463 17.9095 2.6556 17.8062 2.16813C17.7366 1.8537 17.861 1.62156 18.1711 1.51183C18.3145 1.46329 18.4622 1.4232 18.6056 1.39365C20.4662 0.992701 22.3477 0.859754 24.2441 1.05179C26.3957 1.26704 28.4312 1.85792 30.2516 3.05451C33.1015 4.93055 34.867 7.60013 35.8268 10.8289C35.966 11.2974 35.9871 11.8102 35.9998 12.3041C36.0082 12.6333 35.7973 12.7198 35.5462 12.513C35.2699 12.2872 35.0168 12.0297 34.7784 11.7638C34.5569 11.5127 34.3798 11.2257 34.1646 10.9619C33.998 10.7551 33.8524 10.7868 33.7723 11.0442C33.7216 11.2004 33.6773 11.3545 33.633 11.5106C33.1352 13.2875 32.3505 14.9082 31.0786 16.2736C30.9014 16.4656 30.7432 16.7505 30.7221 17.0037C30.6673 17.7044 30.6272 18.4197 30.6947 19.1182C30.8339 20.6187 31.0512 22.1127 31.2199 23.6111C31.3148 24.4573 31.0427 24.9553 30.2475 25.2487C29.6885 25.4534 29.0894 25.6033 28.4988 25.6455C27.558 25.7109 26.6088 25.6645 25.6638 25.6645C25.6385 24.6093 25.7292 23.5731 24.7378 23.0076C24.9298 22.2246 25.1512 21.4818 25.2841 20.7221C25.3938 20.0912 25.301 19.4707 24.858 18.9537C24.4425 18.4662 23.9215 18.3333 23.4447 18.6118C22.0082 19.4496 20.5147 19.4538 18.9938 18.9052C18.2956 18.6519 17.8084 18.7954 17.4223 19.4327C17.0067 20.1186 16.8316 20.8888 16.878 21.6676C16.9371 22.6489 17.108 23.6196 17.2388 24.5967C17.3105 25.1432 17.2493 25.2846 16.7072 25.4239C15.5027 25.7299 14.2772 25.7637 13.0452 25.6645C12.9799 25.6581 12.9145 25.6307 12.8723 25.6202C12.8111 24.5967 12.9187 23.533 11.6995 22.9886C12.2395 21.8427 12.1656 20.6546 11.98 19.4665L11.9758 19.456V19.4558ZM4.69415 15.44C4.87345 15.2711 5.01689 15.0073 5.06751 14.7647C5.19408 14.1569 4.73845 13.3423 4.21111 13.1165C3.93056 12.9941 3.68587 13.0385 3.48759 13.2621C3.00454 13.8087 2.52782 14.3616 2.05314 14.9167C1.97299 15.0116 1.90127 15.1235 1.84432 15.2353C1.65447 15.6004 1.76627 15.8663 2.17127 15.9655C2.41596 16.0267 2.66908 16.0393 2.9201 16.0752C3.574 16.0119 4.20682 15.9022 4.69408 15.4421V15.44L4.69415 15.44ZM4.749 9.36439C4.74689 8.92967 4.38408 8.56671 3.95587 8.5646C3.51501 8.56249 3.13532 8.95711 3.15009 9.39182C3.16907 9.82865 3.53189 10.179 3.96642 10.1705C4.40517 10.1642 4.75533 9.80544 4.75111 9.3665L4.749 9.36439Z" fill="#4F5B93"/>
<path fill-rule="evenodd" clip-rule="evenodd" d="M36 12.3211C36 12.3155 35.9999 12.3098 35.9997 12.3041C35.9871 11.8102 35.966 11.2974 35.8268 10.8289C34.867 7.60013 33.1015 4.93055 30.2516 3.05451C28.4312 1.85792 26.3957 1.26704 24.244 1.05179C22.3477 0.859754 20.4661 0.992701 18.6056 1.39365C18.4622 1.4232 18.3145 1.46329 18.1711 1.51183C17.861 1.62156 17.7365 1.85369 17.8062 2.16813C17.8493 2.37185 17.8999 2.5741 17.9505 2.77626C18.0208 3.05783 18.0912 3.33924 18.1415 3.62422C18.5825 6.1038 18.247 8.45887 16.7219 10.5059C16.5451 10.7433 16.3589 10.9625 16.1638 11.1638L23.555 18.555C24.0007 18.3558 24.4743 18.5036 24.858 18.9537C25.2075 19.3617 25.3391 19.834 25.3251 20.3251L30.2484 25.2484C31.0429 24.955 31.3148 24.457 31.2199 23.6111C31.1552 23.0364 31.0833 22.4624 31.0114 21.8883C30.896 20.9657 30.7805 20.0432 30.6947 19.1182C30.6272 18.4197 30.6672 17.7044 30.7221 17.0037C30.7432 16.7505 30.9014 16.4656 31.0786 16.2736C32.3505 14.9082 33.1352 13.2875 33.633 11.5106C33.6773 11.3545 33.7216 11.2004 33.7722 11.0442C33.8524 10.7868 33.9979 10.7551 34.1646 10.9619C34.2588 11.0775 34.3458 11.1975 34.4324 11.317C34.5435 11.4703 34.6539 11.6227 34.7784 11.7638C35.0168 12.0297 35.2699 12.2872 35.5462 12.513C35.7919 12.7154 35.9992 12.6368 36 12.3248C36 12.3236 36 12.3223 36 12.3211ZM5.89001 0.890038L15.4241 10.4241C16.2977 9.45147 16.8782 8.20847 17.0109 6.89107C17.1375 5.63328 17.0404 4.40509 16.6333 3.21701C16.0132 1.40006 14.661 0.448319 12.8132 0.138108C10.6679 -0.22486 8.58811 0.182424 6.52718 0.724766C6.427 0.751018 6.32649 0.77693 6.22584 0.802876C6.11397 0.831717 6.00193 0.8606 5.89001 0.890038Z" fill="white" fill-opacity="0.25"/>
</svg>
