<svg width="16" height="16" viewBox="0 0 16 16" fill="none" xmlns="http://www.w3.org/2000/svg">
<path d="M0 0.200439V15.7989H16V0.200439H0ZM0.6665 0.867439H15.333V15.1329H0.6665V0.867439ZM5.8485 11.0134C5.8485 11.0779 5.8385 11.0989 5.763 11.0989H4.7365C4.672 11.0989 4.651 11.0684 4.651 11.0134V3.85394C4.651 3.78944 4.6815 3.76544 4.7365 3.76544H5.773C5.8275 3.76544 5.8485 3.78944 5.8485 3.84394V11.0134ZM7.0315 8.42994C7.0315 6.83594 8.081 5.59394 9.7655 5.59394C9.906 5.59394 9.985 5.59394 10.1175 5.60144V3.83344C10.1171 3.8247 10.1185 3.81596 10.1215 3.80776C10.1246 3.79956 10.1292 3.79206 10.1353 3.78571C10.1413 3.77936 10.1485 3.77429 10.1566 3.7708C10.1646 3.76732 10.1732 3.7655 10.182 3.76544H11.2655C11.323 3.76544 11.3335 3.78944 11.3335 3.82294V10.0604C11.3335 10.2449 11.3335 10.4769 11.3675 10.7299C11.3675 10.7739 11.354 10.7844 11.31 10.8079C10.7633 11.0681 10.1655 11.2034 9.56 11.2039C8.0835 11.2039 7.0285 10.2899 7.0285 8.43044L7.0315 8.42994ZM10.1175 6.68194C10.018 6.63794 9.8855 6.61444 9.7215 6.61444C8.865 6.61444 8.2635 7.27294 8.2635 8.37444C8.2635 9.62994 8.875 10.1349 9.646 10.1349C9.81 10.1349 9.9865 10.1144 10.1175 10.0569V6.68194Z" fill="rgba(255, 63, 148, 1)"/>
</svg>
