<svg width="16" height="16" viewBox="0 0 16 16" fill="none" xmlns="http://www.w3.org/2000/svg">
<path d="M0 0.200439V15.7994H16V0.200439H0ZM0.6665 0.866939H15.333V15.1324H0.6665V0.866939ZM3.867 3.85394C3.867 3.80944 3.961 3.77594 4.0155 3.77594C4.58817 3.75171 5.16132 3.74038 5.7345 3.74194C7.5835 3.74194 8.302 4.75494 8.302 6.05194C8.302 7.74744 7.073 8.47394 5.5675 8.47394C5.3125 8.47394 5.2265 8.46094 5.0495 8.46094V11.0234C5.0495 11.0779 5.0285 11.1014 4.974 11.1014H3.9425C3.888 11.1014 3.867 11.0804 3.867 11.0259V3.85394ZM5.0495 7.39594C5.203 7.40644 5.3255 7.40644 5.591 7.40644C6.3695 7.40644 7.104 7.13044 7.104 6.07594C7.104 5.22944 6.578 4.79994 5.6875 4.79994C5.4245 4.79994 5.172 4.81044 5.0495 4.82094V7.39594ZM10.789 6.60144C10.2605 6.60144 10.0835 6.86694 10.0835 7.08594C10.0835 7.32794 10.2035 7.49244 10.909 7.85694C11.9535 8.36494 12.284 8.84644 12.284 9.56244C12.284 10.6274 11.469 11.2004 10.37 11.2004C9.7865 11.2004 9.2895 11.0779 9.003 10.9139C8.9615 10.8929 8.951 10.8594 8.951 10.8044V9.82544C8.951 9.76044 8.9825 9.73694 9.0265 9.77094C9.42554 10.0304 9.89152 10.168 10.3675 10.1669C10.896 10.1669 11.115 9.94794 11.115 9.64894C11.115 9.40694 10.9615 9.19844 10.292 8.84694C9.344 8.39394 8.948 7.93294 8.948 7.16194C8.948 6.30244 9.62 5.58894 10.784 5.58894C11.357 5.58894 11.7605 5.67744 11.982 5.77394C12.0365 5.80794 12.047 5.86244 12.047 5.90694V6.82094C12.047 6.87544 12.013 6.90944 11.948 6.88594C11.651 6.71144 11.2135 6.59944 10.7865 6.59944L10.789 6.60144Z" fill="rgba(127, 186, 251, 1)"/>
</svg>
