<?xml version="1.0" encoding="utf-8"?>
<!-- Generator: Adobe Illustrator 23.0.1, SVG Export Plug-In . SVG Version: 6.00 Build 0)  -->
<svg version="1.1" id="character" xmlns="http://www.w3.org/2000/svg" xmlns:xlink="http://www.w3.org/1999/xlink" x="0px" y="0px"
	 viewBox="0 0 576 544" style="enable-background:new 0 0 576 544;" xml:space="preserve">
<style type="text/css">
	.st0{opacity:0.16;fill:#FFFFFF;}
	.st1{fill:#FFBCA3;}
	.st2{fill:#FFAD8D;}
	.st3{fill:#29305E;}
	.st4{fill:#FFBCA2;}
	.st5{fill:none;stroke:#29305E;stroke-width:3;stroke-linecap:round;stroke-miterlimit:10;}
	.st6{fill:none;stroke:#F77E7F;stroke-width:2;stroke-miterlimit:10;}
	.st7{fill:none;stroke:#F77E7F;stroke-width:3;stroke-linecap:round;stroke-miterlimit:10;}
	.st8{fill:#5352ED;}
	.st9{fill:#3F3CCC;}
	.st10{fill:#CCCCCC;}
	.st11{fill:#B3B3B3;}
	.st12{fill:#F2F2F2;}
</style>
<ellipse class="st0" cx="288" cy="272" rx="288" ry="272"/>
<g id="tête">
	<path class="st1" d="M264,336l72.41-70.15c-18.13-2.94-30.91-3.35-30.91-3.35s-19,2-23-27s-75.73-51.44-75.73-51.44l2.73,70.44
		c0,0-1,11-18,20c-5.72,3.03-15.06,7.3-24.93,11.63L264,336z"/>
	<path class="st2" d="M206.77,188c0,0,8.49,34.47,36.23,49c21,11,42,9,42,9l-2.85-12.35L206.77,188z"/>
	<path class="st3" d="M328,110c0,0,3,26,1,38s-12-34-12-34L328,110z"/>
	<path class="st4" d="M320,108c0,0,17,34,10,76s-23,55-46,55c-10.88,0-32.84-0.43-51-16c-21-18-27.95-37.68-29-44c-2-12,7-58,7-58
		L320,108z"/>
	<path class="st3" d="M218,131c0,0,60.11,1.4,86-6c21-6,28-12,30-27c1.06-7.93-5-17-17-24c-11.62-6.78-41-11-66-10
		c-22.19,0.89-41,7-51,19c-8.35,10.02-6,22-6,22s-11,8-8,24s16,37,17,46s16,0,16,0S222,156,218,131z"/>
	<path class="st4" d="M208,185c0,0,2,3-3,3s-19-13-13-28s19,2,19,2l12-1v18L208,185z"/>
	<path class="st5" d="M256,149c12-12,23,0,23,0"/>
	<circle cx="267.5" cy="163.5" r="3.5"/>
	<path class="st5" d="M302,149c12-12,23,0,23,0"/>
	<circle cx="313.5" cy="163.5" r="3.5"/>
	<polyline class="st6" points="290.5,161.5 301.5,182.5 295.5,191.5 	"/>
	<path class="st7" d="M297.56,202c-11.25,11.25-21.56,0-21.56,0"/>
</g>
<g id="coprs">
	<path class="st8" d="M441.5,442.5l-28-122c0,0-9-37-43-47c-24.85-7.31-48.09-9.81-58.8-10.62C296.32,280.13,273.93,291,249,291
		c-20.2,0-38.73-7.13-53.22-19.02c-1.3,0.85-2.72,1.69-4.28,2.52c-17,9-66,29-66,29s-16,5-28,38s-45,132-45,132s-14.95,39.7,31,56
		C130,546,174,544,174,544l273.5-0.5L441.5,442.5z"/>
	<path class="st9" d="M191.03,455.99c0.03-0.01,46,9.03,45.97,9.01c0,0-45.96-11.38-45.96-15.31c0.01-17.06-0.41-64.4-5.04-83.69
		c0,0,0,45.79-3.96,72.96c-13.21,4.29-65.45,21.3-47.04,16.04c21-6,55.99,0.99,55.99,0.99c0,0,0,0.01,0.01,0.01
		c0.01,0,0.01,0,0.02,0L191.03,455.99L191.03,455.99z"/>
	<path class="st1" d="M225,535l5-28c0,0,2-10,17-13s57-14,57-14s13-7,24,23s3,32,3,32H225z"/>
	<path class="st9" d="M374,325c0,0,14,52,3,100s-14,0-14,0S378,353,374,325z"/>
</g>
<g id="pc">
	<path class="st10" d="M297.44,529l87.31-159.88c1.05-1.93,3.07-3.12,5.27-3.12h179.73c4.46,0,7.36,4.69,5.37,8.68L497.96,529
		H297.44z"/>
	<path class="st11" d="M195.75,529l0,0.01c-3.75,0.14-6.75,3.43-6.75,7.49c0,4.14,3.13,7.5,7,7.5h296c3.31,0,6-2.69,6-6v-9H195.75z"
		/>
	<path class="st12" d="M391.75,375.12c1.05-1.93,3.07-3.12,5.27-3.12h178.73c0-3.15-2.52-6-6-6H390.02c-2.19,0-4.21,1.2-5.27,3.12
		L297.44,529h10.28L391.75,375.12z"/>
</g>
</svg>
