<svg width="33" height="33" viewBox="0 0 33 33" fill="none" xmlns="http://www.w3.org/2000/svg">
<path fill-rule="evenodd" clip-rule="evenodd" d="M32.4995 0.538086H0.499512V32.5381H32.4995V0.538086ZM10.0003 23.3388L11.1534 18.8581L11.1491 18.857H15.8139L17.0182 23.3612C17.0412 23.4611 17.1088 23.4902 17.2342 23.4902H19.6321C19.751 23.4902 19.7794 23.4196 19.751 23.2973L15.12 7.15098C15.0971 7.02873 15.0469 7.00518 14.9499 7.00518H11.904C11.8298 7.00518 11.7785 7.05116 11.7785 7.15098C11.7556 7.89348 11.7109 8.13237 11.6367 8.40156L7.5065 23.2737C7.48359 23.4431 7.5065 23.4902 7.65377 23.4902H9.7898C9.93162 23.4902 9.97744 23.4678 10.0003 23.3388ZM14.7669 14.6769C14.9408 15.3575 15.097 15.9685 15.2106 16.4277H11.7796C11.8244 16.2535 11.8701 16.0757 11.9166 15.8951C12.4888 13.6702 13.1718 11.015 13.4553 9.39977H13.4837C13.7421 10.6659 14.3147 12.9069 14.7669 14.6769ZM23.2452 6.58458C22.4041 6.58458 21.7561 7.1521 21.7561 8.11555H21.7507C21.7507 9.10367 22.3474 9.64652 23.2169 9.64652C24.1092 9.64652 24.7343 9.10255 24.7343 8.11555C24.7343 7.2037 24.1321 6.58458 23.2452 6.58458ZM22.0856 11.3513C21.9667 11.3513 21.9208 11.3984 21.9208 11.5151L21.9318 11.514V23.3085C21.9318 23.4308 21.9776 23.5014 22.1248 23.5014H24.3754C24.5227 23.5014 24.5456 23.4543 24.5456 23.3321V11.5263C24.5456 11.3984 24.5009 11.3513 24.37 11.3513H22.0856Z" fill="#FF7C00"/>
</svg>
