<svg width="33" height="33" viewBox="0 0 33 33" fill="none" xmlns="http://www.w3.org/2000/svg">
<path fill-rule="evenodd" clip-rule="evenodd" d="M32.4995 0.538086H0.499512V32.5381H32.4995V0.538086ZM7.76178 23.3209L8.91488 18.8581V18.8514H13.5742L14.7731 23.3433C14.796 23.4431 14.8702 23.4835 14.9891 23.4835H17.387C17.5059 23.4835 17.5288 23.4128 17.5059 23.2906L12.8749 7.18575C12.852 7.0635 12.8073 7.03434 12.7102 7.03434H9.65889C9.5858 7.03434 9.53998 7.08593 9.53998 7.18575C9.51707 7.92825 9.46689 8.14359 9.39816 8.41277L5.26793 23.2681C5.24502 23.4375 5.26793 23.4902 5.40975 23.4902H7.54577C7.68759 23.4902 7.73887 23.4431 7.76178 23.3209ZM12.4679 14.3802C12.6758 15.1794 12.864 15.9029 12.9938 16.4277H9.51707C9.56977 16.2246 9.62388 16.0167 9.67893 15.8051C10.2529 13.599 10.9309 10.9932 11.2156 9.39977H11.2385C11.4828 10.5926 12.0209 12.6613 12.4679 14.3802ZM20.7897 17.9654C20.82 19.9883 21.752 21.3413 23.9598 21.3413C24.8238 21.3413 25.5623 21.2246 26.3293 20.8736C26.4264 20.8265 26.4994 20.8557 26.4994 20.9791V22.8543C26.4994 23.0001 26.4536 23.0764 26.3522 23.1526C25.5852 23.5441 24.6307 23.719 23.4318 23.719C19.5906 23.719 18.1528 20.8097 18.1528 17.5504C18.1528 14.0218 19.9255 11.136 23.051 11.136C26.2158 11.136 27.3176 13.876 27.3176 16.0957C27.3176 16.8146 27.2664 17.4046 27.1987 17.6782C27.1704 17.8005 27.1245 17.842 27.0056 17.8655C26.7154 17.9182 25.8525 17.9654 24.5794 17.9654H20.7897ZM24.8249 15.8781C24.7507 15.9016 24.4889 15.9016 23.7449 15.9016H20.8136C20.9554 14.5692 21.5576 13.3074 22.9496 13.3074C24.4616 13.3074 24.8478 14.8036 24.8478 15.6212C24.8478 15.6529 24.843 15.6882 24.8379 15.7268C24.8317 15.7729 24.8249 15.8237 24.8249 15.8781Z" fill="#D291FF"/>
</svg>
