<svg width="21" height="15" viewBox="0 0 21 15" fill="none" xmlns="http://www.w3.org/2000/svg">
<path fill-rule="evenodd" clip-rule="evenodd" d="M7.70893 13.7077C7.61605 13.8009 7.50571 13.8747 7.38423 13.9251C7.26276 13.9755 7.13253 14.0015 7.00101 14.0015C6.86949 14.0015 6.73926 13.9755 6.61779 13.9251C6.49631 13.8747 6.38597 13.8009 6.29309 13.7077L0.29376 7.70841C0.200644 7.61553 0.126768 7.50519 0.0763603 7.38371C0.025953 7.26224 6.24523e-06 7.13201 6.25672e-06 7.00049C6.26822e-06 6.86897 0.0259531 6.73874 0.0763604 6.61727C0.126768 6.49579 0.200644 6.38545 0.29376 6.29257L6.29309 0.293241C6.48084 0.105489 6.73549 1.11975e-05 7.00101 1.12207e-05C7.26653 1.12439e-05 7.52118 0.105489 7.70893 0.293241C7.89668 0.480993 8.00216 0.73564 8.00216 1.00116C8.00216 1.26668 7.89668 1.52133 7.70893 1.70908L2.41552 7.00049L7.70893 12.2919C7.80205 12.3848 7.87592 12.4951 7.92633 12.6166C7.97674 12.7381 8.00269 12.8683 8.00269 12.9998C8.00269 13.1313 7.97674 13.2616 7.92633 13.383C7.87592 13.5045 7.80205 13.6149 7.70893 13.7077Z" fill="black"/>
<path fill-rule="evenodd" clip-rule="evenodd" d="M21 7C21 7.26522 20.8595 7.51957 20.6095 7.70711C20.3594 7.89464 20.0203 8 19.6667 8L2.33333 8C1.97971 8 1.64057 7.89464 1.39052 7.70711C1.14047 7.51957 0.999999 7.26522 0.999999 7C1 6.73478 1.14047 6.48043 1.39052 6.29289C1.64057 6.10536 1.97971 6 2.33333 6L19.6667 6C20.0203 6 20.3594 6.10536 20.6095 6.29289C20.8595 6.48043 21 6.73478 21 7Z" fill="black"/>
</svg>
