<svg width="16" height="16" viewBox="0 0 16 16" fill="none" xmlns="http://www.w3.org/2000/svg">
<path d="M0 0.200439V15.7994H16V0.200439H0ZM0.6665 0.866939H15.333V15.1324H0.6665V0.866939ZM4.5235 9.03394L3.995 11.0234C3.9845 11.0779 3.961 11.0989 3.896 11.0989H2.917C2.852 11.0989 2.8415 11.0754 2.852 10.9999L4.745 4.37744C4.7765 4.25744 4.7995 4.16144 4.81 3.83044C4.81 3.78594 4.831 3.76294 4.8645 3.76294H6.263C6.3075 3.76294 6.328 3.77594 6.3385 3.83044L8.461 11.0099C8.4715 11.0644 8.461 11.0959 8.4065 11.0959H7.3075C7.253 11.0959 7.219 11.0779 7.2085 11.0334L6.659 9.03094H4.5235V9.03394ZM6.393 7.95044C6.2055 7.21344 5.7525 5.59644 5.5885 4.81744H5.578C5.435 5.59594 5.0755 6.91644 4.7995 7.95044H6.393ZM9.966 8.63294C9.979 9.53644 10.406 10.1409 11.419 10.1409C11.815 10.1409 12.1535 10.0889 12.505 9.93244C12.5495 9.91144 12.583 9.92444 12.583 9.97944V10.8154C12.583 10.8804 12.562 10.9144 12.5155 10.9484C12.164 11.1229 11.7265 11.2009 11.177 11.2009C9.4165 11.2009 8.7575 9.90394 8.7575 8.45094C8.7575 6.87794 9.57 5.59144 11.0025 5.59144C12.453 5.59144 12.958 6.81294 12.958 7.80244C12.958 8.12294 12.9345 8.38594 12.9035 8.50794C12.8905 8.56244 12.8695 8.58094 12.815 8.59144C12.682 8.61494 12.2865 8.63594 11.703 8.63594H9.966V8.63294ZM11.3205 7.71594C11.6615 7.71594 11.7815 7.71594 11.8155 7.70544C11.8155 7.66094 11.826 7.62194 11.826 7.59094C11.826 7.22644 11.649 6.55944 10.956 6.55944C10.318 6.55944 10.042 7.12194 9.977 7.71594H11.3205Z" fill="rgba(210, 145, 255, 1)"/>
</svg>
