<svg width="16" height="16" viewBox="0 0 16 16" fill="none" xmlns="http://www.w3.org/2000/svg">
<path d="M0 0.200439V15.7994H16V0.200439H0ZM0.6665 0.866939H15.333V15.1324H0.6665V0.866939ZM5.5495 9.03394L5.021 11.0314C5.0105 11.0889 4.9895 11.0989 4.9245 11.0989H3.9455C3.878 11.0989 3.8675 11.0779 3.878 11.0024L5.771 4.37244C5.805 4.25244 5.8255 4.14594 5.836 3.81494C5.836 3.77044 5.8595 3.74994 5.8935 3.74994H7.2895C7.334 3.74994 7.357 3.76044 7.3675 3.81494L9.49 11.0129C9.503 11.0674 9.49 11.0989 9.4355 11.0989H8.3365C8.279 11.0989 8.248 11.0859 8.2375 11.0414L7.6855 9.03344H5.5475L5.5495 9.03394ZM7.409 7.95044C7.2215 7.21344 6.7815 5.59894 6.6175 4.81744H6.6045C6.464 5.59594 6.1095 6.91644 5.8365 7.95044H7.409ZM10.409 4.24494C10.409 3.81544 10.706 3.56244 11.0915 3.56244C11.498 3.56244 11.774 3.83844 11.774 4.24494C11.774 4.68494 11.4875 4.92744 11.0785 4.92744C10.68 4.92744 10.4065 4.68544 10.4065 4.24494H10.409ZM10.4845 5.76044C10.4845 5.70844 10.5055 5.68744 10.56 5.68744H11.607C11.667 5.68744 11.6875 5.70844 11.6875 5.76544V11.0284C11.6875 11.0829 11.677 11.1039 11.6095 11.1039H10.578C10.5105 11.1039 10.4895 11.0724 10.4895 11.0179V5.75994L10.4845 5.76044Z" fill="rgba(255, 124, 0, 1)"/>
</svg>
