<svg width="16" height="16" viewBox="0 0 16 16" fill="none" xmlns="http://www.w3.org/2000/svg">
<path d="M0 0.200439V15.7994H16V0.200439H0ZM0.6665 0.866939H15.333V15.1324H0.6665V0.866939ZM4.198 3.85144C4.198 3.80694 4.2085 3.77344 4.2655 3.77344C4.83636 3.75018 5.40767 3.73968 5.979 3.74194C7.828 3.74194 8.63 4.75494 8.63 6.05194C8.63 7.74444 7.406 8.47144 5.898 8.47144C5.6455 8.47144 5.557 8.46094 5.38 8.46094V11.0234C5.38 11.0779 5.359 11.0989 5.3045 11.0989H4.276C4.2185 11.0989 4.198 11.0779 4.198 11.0234V3.85144ZM5.38 7.39294C5.5365 7.40344 5.656 7.40344 5.9215 7.40344C6.7 7.40344 7.432 7.12994 7.432 6.07294C7.432 5.22644 6.911 4.79694 6.018 4.79694C5.755 4.79694 5.5025 4.80994 5.38 4.82044V7.39294ZM9.6485 6.78894C9.6485 6.71094 9.6485 6.51294 9.6145 6.14044C9.6145 6.08594 9.6225 6.07294 9.6665 6.05194C10.4446 5.75259 11.2704 5.59641 12.104 5.59094C12.1585 5.59094 12.182 5.60144 12.182 5.65594V6.62494C12.182 6.67944 12.164 6.68994 12.109 6.68994C11.6844 6.66343 11.2583 6.70839 10.8485 6.82294V11.0234C10.8485 11.0779 10.825 11.0989 10.7705 11.0989H9.7235C9.669 11.0989 9.648 11.0779 9.648 11.0234L9.6485 6.78894Z" fill="rgba(215, 86, 255, 1)"/>
</svg>
