<svg width="14" height="16" viewBox="0 0 14 16" fill="none" xmlns="http://www.w3.org/2000/svg">
<path fill-rule="evenodd" clip-rule="evenodd" d="M0.875 14.3158H13.125C13.3571 14.3158 13.5796 14.4045 13.7437 14.5624C13.9078 14.7204 14 14.9346 14 15.1579C14 15.3812 13.9078 15.5954 13.7437 15.7534C13.5796 15.9113 13.3571 16 13.125 16H0.875C0.642936 16 0.420376 15.9113 0.256282 15.7534C0.0921874 15.5954 0 15.3812 0 15.1579C0 14.9346 0.0921874 14.7204 0.256282 14.5624C0.420376 14.4045 0.642936 14.3158 0.875 14.3158ZM7.875 9.41053L10.7126 6.68042L11.9499 7.87116L7 12.6349L2.05012 7.87116L3.28737 6.68042L6.125 9.41053V0H7.875V9.41053Z" fill="white"/>
</svg>
