<svg width="22" height="14" viewBox="0 0 22 14" fill="none" xmlns="http://www.w3.org/2000/svg">
<path fill-rule="evenodd" clip-rule="evenodd" d="M20.5141 4.80176C19.3026 8.96089 15.4622 12 10.9119 12C6.36166 12 2.52123 8.96089 1.30972 4.80176C0.798904 5.48208 0.358704 6.21845 0 7C1.89601 11.1311 6.06893 14 10.9119 14C15.7549 14 19.9278 11.1311 21.8238 7.00001C21.4651 6.21846 21.0249 5.48208 20.5141 4.80176Z" fill="white"/>
<path fill-rule="evenodd" clip-rule="evenodd" d="M0 7C1.89601 2.86894 6.06893 0 10.9119 0C15.7549 0 19.9278 2.86895 21.8238 7C21.4651 7.78155 21.0249 8.51793 20.5141 9.19825C19.3026 5.03912 15.4622 2 10.9119 2C6.36166 2 2.52124 5.03912 1.30972 9.19825C0.798905 8.51793 0.358705 7.78155 0 7Z" fill="white"/>
<circle cx="11" cy="7" r="3" fill="white"/>
</svg>
