<svg width="24" height="36" viewBox="0 0 24 36" fill="none" xmlns="http://www.w3.org/2000/svg">
<path d="M18 24C21.3137 24 24 21.3137 24 18C24 14.6863 21.3137 12 18 12C14.6863 12 12 14.6863 12 18C12 21.3137 14.6863 24 18 24Z" fill="#19BCFE"/>
<path fill-rule="evenodd" clip-rule="evenodd" d="M6 36C7.5913 36 9.11742 35.3679 10.2426 34.2426C11.3679 33.1174 12 31.5913 12 30V24H6C4.4087 24 2.88258 24.6321 1.75736 25.7574C0.632141 26.8826 0 28.4087 0 30C0 31.5913 0.632141 33.1174 1.75736 34.2426C2.88258 35.3679 4.4087 36 6 36Z" fill="#00D287"/>
<path fill-rule="evenodd" clip-rule="evenodd" d="M6 24H12V12H6C4.4087 12 2.88258 12.6321 1.75736 13.7574C0.632141 14.8826 0 16.4087 0 18C0 19.5913 0.632141 21.1174 1.75736 22.2426C2.88258 23.3679 4.4087 24 6 24Z" fill="#A259FF"/>
<path fill-rule="evenodd" clip-rule="evenodd" d="M6 12H12V0H6C4.4087 0 2.88258 0.632141 1.75736 1.75736C0.632141 2.88258 0 4.4087 0 6C0 7.5913 0.632141 9.11742 1.75736 10.2426C2.88258 11.3679 4.4087 12 6 12Z" fill="#F24E1E"/>
<path fill-rule="evenodd" clip-rule="evenodd" d="M18 12H12V0H18C19.5913 0 21.1174 0.632141 22.2426 1.75736C23.3679 2.88258 24 4.4087 24 6C24 7.5913 23.3679 9.11742 22.2426 10.2426C21.1174 11.3679 19.5913 12 18 12Z" fill="#FF7262"/>
<path fill-rule="evenodd" clip-rule="evenodd" d="M18 24C21.3137 24 24 21.3137 24 18C24 14.6863 21.3137 12 18 12C19.5913 12 21.1174 11.3679 22.2426 10.2426C23.3679 9.11742 24 7.5913 24 6C24 4.4087 23.3679 2.88258 22.2426 1.75736C21.1174 0.632141 19.5913 0 18 0H12H6C4.4087 0 2.88258 0.632141 1.75736 1.75736C0.632141 2.88258 0 4.4087 0 6L6 12L12 18L18 24ZM12 18V12H18C14.6863 12 12 14.6863 12 18Z" fill="white" fill-opacity="0.25"/>
</svg>
