<svg width="36" height="36" viewBox="0 0 36 36" fill="none" xmlns="http://www.w3.org/2000/svg">
<path fill-rule="evenodd" clip-rule="evenodd" d="M12.0972 7.59431H15.8472L21.2397 25.6605H17.9824L16.6411 20.5144H11.3856L10.0169 25.6605H7.1427L12.0973 8.44291V7.59431H12.0972ZM15.902 17.8592L14.0406 10.222L12.1245 17.8591H15.902V17.8592ZM26.8239 12.2342H23.8676V25.6605H26.8239V12.2344V12.2342ZM25.3076 7.01796C24.3499 7.01796 23.5735 7.78542 23.5735 8.73218C23.5735 9.67894 24.3499 10.4465 25.3076 10.4465C26.2653 10.4465 27.0418 9.67901 27.0418 8.73225C27.0418 7.78549 26.2654 7.01796 25.3076 7.01796ZM36 36H0V0H36V36Z" fill="#FF7719"/>
<path fill-rule="evenodd" clip-rule="evenodd" d="M36 0H0L11.2807 11.2807L12.0973 8.44291V7.59431H15.8472L19.3587 19.3587L23.8676 23.8676V12.2342H26.8239V12.2344V25.6605H25.6605L36 36L36 0ZM15.2713 15.2713L14.0406 10.222L13.2747 13.2747L15.2713 15.2713ZM23.5735 8.73218C23.5735 7.78542 24.3498 7.01796 25.3076 7.01796C26.2654 7.01796 27.0418 7.78549 27.0418 8.73225C27.0418 9.67901 26.2653 10.4465 25.3076 10.4465C24.3498 10.4465 23.5735 9.67894 23.5735 8.73218Z" fill="white" fill-opacity="0.25"/>
</svg>
