<svg width="36" height="36" viewBox="0 0 36 36" fill="none" xmlns="http://www.w3.org/2000/svg">
<path d="M18.654 18.9375C18.5668 16.1295 20.5398 13.9069 23.4044 14.6544V23.2986C20.5498 23.9882 18.5336 22.2914 18.654 18.9375ZM0 0V36H36V0H0ZM12.5018 25.9463H9.46477V7.17848H12.5018V25.9463ZM22.0026 26.1799C18.5365 26.28 15.4713 24.0817 15.539 19.0933C15.5934 15.0844 18.0915 11.4846 23.4044 11.851V7.17848H26.5194V24.0384C26.5194 24.3243 26.5454 24.7335 26.6153 25.0729C25.4192 25.7351 23.8698 26.1679 22.0026 26.1799Z" fill="#DB017B"/>
<path fill-rule="evenodd" clip-rule="evenodd" d="M9.46476 9.46476L0 0H36L36 36L25.5593 25.5593C25.9371 25.4168 26.2893 25.2534 26.6152 25.0729C26.5454 24.7335 26.5194 24.3243 26.5194 24.0384V7.17848H23.4044V11.851C19.4831 11.5806 17.0951 13.4708 16.0914 16.0914L12.5018 12.5018V7.17848H9.46476V9.46476ZM23.3187 23.3187L18.6522 18.6522C18.7025 15.9812 20.6376 13.9324 23.4044 14.6544V23.2986C23.3758 23.3055 23.3472 23.3122 23.3187 23.3187Z" fill="white" fill-opacity="0.25"/>
</svg>
