<svg width="36" height="36" viewBox="0 0 36 36" fill="none" xmlns="http://www.w3.org/2000/svg">
<path fill-rule="evenodd" clip-rule="evenodd" d="M36 36H0V0H36V36ZM28.5757 15.2588V12.4667C28.1159 12.2619 25.4826 11.5087 23.4023 12.3025C20.4055 13.4459 20.5132 16.8905 21.6503 18.2424C23.1237 19.9941 26.7889 20.6471 26.1892 22.3664C25.8786 23.2567 24.4287 23.4117 23.1504 23.1128C21.96 22.8345 20.925 22.1294 20.925 22.1294V25.0857C20.925 25.0857 21.948 25.656 23.2037 25.7917C24.8134 25.9656 26.831 25.6373 27.8419 24.7388C29.6411 23.1394 29.9175 19.5964 26.5077 17.9511C23.6702 16.5821 23.7169 16.1914 23.7368 15.4892C23.7635 14.5487 25.7382 13.9698 28.5757 15.2588ZM13.2743 7.42324C15.6352 7.50537 19.1047 8.59345 19.1047 13.2332C19.1047 17.8729 14.8597 19.3954 10.9863 19.0636V25.6331H8.1007V7.48477C8.1007 7.48477 10.9133 7.34112 13.2742 7.42324H13.2743ZM14.0236 16.1895C15.2679 15.7354 16.0766 14.7594 16.0766 13.2434C16.0766 11.6359 15.2536 10.5474 13.9949 10.24C12.6318 9.90689 10.9863 10.1032 10.9863 10.1032V16.4344C10.9863 16.4344 13.264 16.4666 14.0236 16.1895Z" fill="#31C5F0"/>
<path fill-rule="evenodd" clip-rule="evenodd" d="M36 0H0L8.1007 8.1007V7.48477C8.1007 7.48477 10.9133 7.34112 13.2742 7.42324H13.2743C15.6352 7.50537 19.1047 8.59345 19.1047 13.2332C19.1047 15.082 18.4307 16.4359 17.3747 17.3747L23.1009 23.101C23.1174 23.105 23.1339 23.1089 23.1504 23.1128C24.4287 23.4117 25.8786 23.2567 26.1891 22.3664C26.5474 21.3394 25.384 20.6929 24.0749 19.9654C23.1924 19.475 22.2436 18.9478 21.6503 18.2424C20.5132 16.8905 20.4055 13.4459 23.4022 12.3025C25.4826 11.5087 28.1159 12.2619 28.5757 12.4667V15.2588C25.7382 13.9698 23.7635 14.5487 23.7368 15.4892C23.7365 15.4977 23.7363 15.5062 23.7361 15.5147C23.7162 16.2011 23.7047 16.5988 26.5077 17.9511C29.9175 19.5964 29.6411 23.1394 27.8418 24.7388C27.323 25.2 26.5389 25.5109 25.6809 25.6809L36 36L36 0ZM15.3364 15.3364C15.8057 14.8172 16.0766 14.1207 16.0766 13.2434C16.0766 11.6359 15.2536 10.5474 13.9949 10.24C12.6318 9.90689 10.9863 10.1032 10.9863 10.1032V10.9863L15.3364 15.3364Z" fill="white" fill-opacity="0.25"/>
</svg>
