<svg width="36" height="36" viewBox="0 0 36 36" fill="none" xmlns="http://www.w3.org/2000/svg">
<path d="M0 0V36H36V0H0ZM18.5692 16.7202C17.2711 18.5916 14.6725 19.536 11.0863 19.3667V26.1963H8.02477V7.27734L12.6564 7.19888C16.5064 7.05403 19.4579 9.09323 19.4861 13.165C19.4529 14.5988 19.2112 15.7947 18.5692 16.7202V16.7202ZM28.5923 14.6565C28.5886 14.7783 28.5263 14.8164 28.4353 14.8135C27.2929 14.7099 26.1155 14.8838 25.1383 15.1275V26.1963H22.0766V15.049C22.0889 14.3884 22.0526 13.9088 21.9981 13.4004C21.9866 13.3423 21.9848 13.2203 22.1551 13.1649C23.6856 12.6098 25.9974 11.9398 28.4353 11.9874C28.5316 11.9869 28.5915 12.0303 28.5923 12.1444V14.6565ZM16.346 13.2434C16.3496 14.1876 16.1934 14.8624 15.8331 15.3463C14.9051 16.5924 13.0762 16.5711 12.4995 16.6191H11.0863V9.94641H12.7349C15.4131 9.96518 16.3052 11.3202 16.346 13.2434Z" fill="#EA77FF"/>
<path fill-rule="evenodd" clip-rule="evenodd" d="M8.02476 8.02476L0 0H36L36 36L25.1383 25.1383V15.1275C26.1155 14.8838 27.2929 14.7099 28.4353 14.8135C28.5263 14.8164 28.5886 14.7783 28.5923 14.6565V12.1444C28.5915 12.0303 28.5316 11.9869 28.4353 11.9874C25.9974 11.9398 23.6856 12.6098 22.1551 13.1649C21.9847 13.2203 21.9866 13.3423 21.9981 13.4004C22.0526 13.9088 22.0889 14.3884 22.0766 15.049V22.0766L17.6877 17.6877C18.0273 17.3997 18.3218 17.0768 18.5692 16.7202V16.7202C19.2112 15.7947 19.4529 14.5988 19.486 13.165C19.4579 9.09323 16.5064 7.05403 12.6564 7.19888L8.02476 7.27734V8.02476ZM15.6079 15.6079L11.0863 11.0863V9.94641H12.7349C15.4131 9.96518 16.3052 11.3202 16.346 13.2434C16.3495 14.1876 16.1934 14.8624 15.8331 15.3463C15.7629 15.4405 15.6875 15.5276 15.6079 15.6079Z" fill="white" fill-opacity="0.25"/>
</svg>
