<svg width="36" height="36" viewBox="0 0 36 36" fill="none" xmlns="http://www.w3.org/2000/svg">
<path d="M0 0V36H36V0H0ZM5.59428 14.8756H14.7525C15.6894 14.8822 16.6742 15.2425 17.4288 15.9369C18.1234 16.6227 18.5314 17.6062 18.5516 18.6593C18.5481 19.468 18.394 20.3998 17.8572 21.1423C17.4821 21.6473 16.8947 22.0291 16.2466 22.2475V22.3332C16.9291 22.5038 17.6018 22.8685 18.0813 23.4713C18.6517 24.2089 18.8467 25.2037 18.8635 26.1828C18.8567 27.2214 18.4972 28.3337 17.6924 29.1578C16.9771 29.8606 15.95 30.2629 14.8689 30.285H5.5941V14.8757L5.59428 14.8756ZM21.6431 14.9064H28.4545V17.4332H21.6431V14.9064ZM24.9038 18.1891C25.8542 18.1891 26.6973 18.3125 27.4328 18.5604C28.1749 18.8011 28.7994 19.1773 29.3071 19.6876C29.8148 20.1908 30.1981 20.8323 30.4585 21.6124C30.8019 22.6337 30.867 23.9411 30.8606 25.1347H22.9415C22.9415 25.9513 23.1038 26.5854 23.4293 27.0375C23.7612 27.4823 24.3046 27.7033 25.0596 27.7033C25.777 27.6999 26.6173 27.4699 26.8944 26.6639C26.966 26.4525 27.002 26.2278 27.002 25.9872H30.8604C30.8524 27.2133 30.4576 28.431 29.4235 29.3336C28.2809 30.2629 26.684 30.5281 25.1476 30.5575C24.1972 30.5575 23.3382 30.4378 22.5702 30.1971C21.8086 29.9492 21.1615 29.5693 20.6278 29.059C20.094 28.5486 19.6837 27.907 19.3973 27.1342C19.1109 26.354 18.9666 25.4323 18.9666 24.3678C18.9666 23.3325 19.1064 22.4293 19.3863 21.6564C19.6662 20.8835 20.063 20.242 20.5772 19.7316C21.0979 19.2139 21.7224 18.8266 22.4515 18.5714C23.187 18.3162 24.0053 18.1891 24.9036 18.1891L24.9038 18.1891ZM10.0085 18.255V20.8786H13.0452C13.3189 20.8765 13.5793 20.7511 13.7769 20.5292C13.9687 20.2956 14.0627 19.9879 14.0691 19.6657V19.4459C14.0671 19.1551 13.9553 18.8547 13.7659 18.6044C13.5937 18.401 13.3354 18.2697 13.0452 18.255H10.0085ZM25.0597 21.0323C24.3892 21.0323 23.8887 21.2112 23.5568 21.5684C23.2313 21.9257 23.0329 22.4106 22.9613 23.0231H26.846C26.846 22.4033 26.6905 21.9184 26.378 21.5684C26.0656 21.2112 25.626 21.0323 25.0597 21.0323ZM10.0085 24.0624V26.6969H13.3659C13.6366 26.6948 13.8957 26.5705 14.0976 26.3585C14.2885 26.126 14.3872 25.8169 14.392 25.495V25.2643C14.3903 24.9708 14.2952 24.6647 14.0976 24.4117C13.9242 24.2072 13.6558 24.079 13.3659 24.0624H10.0085Z" fill="#1769FF"/>
<path fill-rule="evenodd" clip-rule="evenodd" d="M18.548 18.548L20.1808 20.1808C20.3041 20.0212 20.4363 19.8715 20.5772 19.7316C21.0979 19.2139 21.7224 18.8266 22.4515 18.5714C23.187 18.3162 24.0053 18.1891 24.9036 18.1891L24.9038 18.1891C25.8542 18.1891 26.6973 18.3125 27.4328 18.5604C28.1749 18.8011 28.7994 19.1773 29.3071 19.6876C29.8148 20.1908 30.1981 20.8323 30.4585 21.6124C30.8019 22.6337 30.867 23.9411 30.8606 25.1347H25.1347L26.8271 26.8271C26.8522 26.7755 26.8747 26.7212 26.8944 26.6639C26.966 26.4525 27.002 26.2278 27.002 25.9872H30.8604C30.8524 27.2133 30.4576 28.431 29.4235 29.3336C29.4069 29.3471 29.3903 29.3604 29.3736 29.3736L36 36V0H0L14.8786 14.8786C15.7771 14.9151 16.708 15.2736 17.4288 15.9369C18.0989 16.5985 18.5022 17.5371 18.548 18.548ZM23.0231 23.0231H26.846C26.846 22.4033 26.6905 21.9184 26.378 21.5684C26.0656 21.2112 25.626 21.0323 25.0597 21.0323C24.3892 21.0323 23.8887 21.2112 23.5568 21.5684C23.2411 21.915 23.045 22.3815 22.9681 22.9681L23.0231 23.0231ZM28.4545 14.9064H21.6431V17.4332H28.4545V14.9064Z" fill="white" fill-opacity="0.25"/>
</svg>
