<svg width="36" height="36" viewBox="0 0 36 36" fill="none" xmlns="http://www.w3.org/2000/svg">
<path fill-rule="evenodd" clip-rule="evenodd" d="M36 0H0V36H36V0ZM6 18C6 24.6127 11.3872 30 18 30C24.6128 30 30 24.6127 30 18C30 11.3873 24.6128 6 18 6C11.3872 6 6 11.3873 6 18ZM21.7343 19.203C24.9495 18.6877 27.7703 19.5308 28.1212 19.641C27.8967 21.0256 27.3909 22.3495 26.6352 23.5311C25.8795 24.7128 24.8897 25.7272 23.727 26.5118C23.6212 25.887 23.0745 22.887 21.7343 19.203ZM19.8165 19.68C21.2542 23.418 21.852 26.5515 22.0042 27.4493L21.9998 27.4523C20.7697 27.9765 19.4182 28.2653 18 28.2653C15.7204 28.2695 13.5056 27.5074 11.7112 26.1015C11.8912 25.7265 13.9612 21.7147 19.7505 19.6987L19.8165 19.68ZM18.7185 18.105C13.4295 19.8157 10.617 24.4688 10.3867 24.8707L10.3875 24.867C8.75024 23.0513 7.75424 20.6453 7.75424 18.012L7.758 17.6993C8.20651 17.7112 13.1715 17.7735 18.2888 16.2465C18.583 16.8174 18.8604 17.3969 19.1205 17.9843C18.9878 18.0203 18.8513 18.0593 18.7185 18.105ZM17.4413 14.6685C12.648 15.9412 8.42624 15.9225 7.965 15.9142V15.9105C8.29404 14.3583 8.9776 12.9032 9.96225 11.659C10.9469 10.4148 12.2059 9.41516 13.641 8.73822C15.0127 10.6458 16.2812 12.6254 17.4413 14.6685ZM15.6105 8.06262L15.6023 8.05127C16.3872 7.86053 17.1922 7.76483 18 7.76624C20.5069 7.7619 22.9272 8.68268 24.7972 10.3522C24.6128 10.6132 23.0663 12.6885 19.422 14.0513C17.7621 10.9938 15.9182 8.48169 15.6105 8.06262ZM20.211 15.5737C24 14.0272 25.719 11.8237 25.9343 11.535L25.941 11.5388C27.4203 13.3386 28.2356 15.5923 28.2502 17.922C27.9105 17.8515 24.5205 17.16 21.1095 17.5897C21.039 17.4218 20.973 17.2418 20.8912 17.0618C20.6797 16.5585 20.4488 16.0657 20.211 15.5737Z" fill="#F26798"/>
<path fill-rule="evenodd" clip-rule="evenodd" d="M0 0L9.52022 9.52022C11.6936 7.34681 14.6936 6 18 6C24.6128 6 30 11.3873 30 18C30 21.3064 28.6532 24.3064 26.4798 26.4798L36 36V0H0ZM25.2526 25.2526C25.7726 24.7315 26.2365 24.1546 26.6352 23.5311C27.3909 22.3495 27.8967 21.0256 28.1212 19.641C27.7703 19.5308 24.9495 18.6877 21.7343 19.203C22.2277 20.5593 22.6136 21.823 22.9095 22.9095L25.2526 25.2526ZM19.9007 19.9007C19.8729 19.8274 19.8449 19.7538 19.8165 19.68L19.7505 19.6987C19.7377 19.7032 19.7249 19.7077 19.7121 19.7121L19.9007 19.9007ZM18.262 18.262C18.4121 18.2073 18.5642 18.1549 18.7185 18.105C18.8513 18.0593 18.9878 18.0203 19.1205 17.9843C18.8604 17.3969 18.583 16.8174 18.2888 16.2465C17.7487 16.4077 17.2103 16.5511 16.6788 16.6788L18.262 18.262ZM15.1875 15.1875C15.9152 15.0443 16.6708 14.8731 17.4413 14.6685C16.2812 12.6254 15.0127 10.6458 13.641 8.73822C12.5695 9.24367 11.5961 9.92903 10.7618 10.7618L15.1875 15.1875ZM15.6023 8.05127L15.6105 8.06262C15.9182 8.48169 17.7621 10.9938 19.422 14.0513C23.0663 12.6885 24.6128 10.6132 24.7972 10.3522C22.9272 8.68268 20.5069 7.7619 18 7.76624C17.1922 7.76483 16.3872 7.86053 15.6023 8.05127ZM25.9343 11.535C25.719 11.8237 24 14.0272 20.211 15.5737C20.4488 16.0657 20.6797 16.5585 20.8912 17.0618C20.9427 17.175 20.9879 17.2882 21.0319 17.3985C21.0578 17.4635 21.0833 17.5274 21.1095 17.5897C24.5205 17.16 27.9105 17.8515 28.2502 17.922C28.2356 15.5923 27.4203 13.3386 25.941 11.5388L25.9343 11.535Z" fill="white" fill-opacity="0.25"/>
</svg>
