<svg width="36" height="36" viewBox="0 0 36 36" fill="none" xmlns="http://www.w3.org/2000/svg">
<path d="M0 0V36H36V0H0ZM8.82861 7.07739C10.2545 7.09344 11.6591 8.07714 11.7202 9.78003C11.7507 11.2943 10.4311 12.4477 8.79126 12.4827H8.75172C7.34001 12.4664 5.96136 11.458 5.89746 9.78003C5.91759 8.28264 7.17627 7.11291 8.82861 7.07739ZM24.126 14.2317C25.6936 14.2414 27.1731 14.7065 28.3887 15.9456C29.6518 17.3544 30.0574 19.2969 30.1025 21.2717V30.2542H24.9258V21.8826C24.9142 20.3135 24.3768 18.4063 22.3001 18.3428C21.0829 18.3557 20.2246 19.063 19.6369 20.2456C19.4765 20.6263 19.4534 21.0638 19.4458 21.5002V30.2542H14.2712C14.291 25.8778 14.3182 21.5019 14.3086 17.1255C14.3086 15.8824 14.2966 15.0453 14.2712 14.614H19.4458V16.8201C19.885 16.1954 20.3722 15.6029 21.0256 15.126C21.9119 14.4934 22.9767 14.2509 24.126 14.2317ZM6.20289 14.614H11.3774V30.2542H6.20289V14.614Z" fill="#FFC500"/>
<path fill-rule="evenodd" clip-rule="evenodd" d="M11.7202 9.78003C11.6591 8.07714 10.2545 7.09344 8.82861 7.07739C8.31162 7.0885 7.83317 7.21065 7.41913 7.41913L0 0H36V36L30.1025 30.1025V21.2717C30.0574 19.2969 29.6518 17.3544 28.3887 15.9456C27.1731 14.7065 25.6936 14.2414 24.126 14.2317C22.9767 14.2509 21.9119 14.4934 21.0256 15.126C20.3722 15.6029 19.885 16.1954 19.4458 16.8201V14.614H14.614L11.2612 11.2612C11.5615 10.8406 11.7314 10.3345 11.7202 9.78003ZM19.8529 19.8529L24.9258 24.9258V21.8826C24.9142 20.3135 24.3768 18.4063 22.3001 18.3428C21.2244 18.3542 20.429 18.908 19.8529 19.8529Z" fill="white" fill-opacity="0.25"/>
</svg>
