<svg width="290" height="290" viewBox="0 0 290 290" fill="none" xmlns="http://www.w3.org/2000/svg">
<rect width="5" height="5" fill="#F52227"/>
<rect x="57" width="5" height="5" fill="#F52227"/>
<rect x="114" width="5" height="5" fill="#F52227"/>
<rect y="57" width="5" height="5" fill="#F52227"/>
<rect x="57" y="57" width="5" height="5" fill="#F52227"/>
<rect x="114" y="57" width="5" height="5" fill="#F52227"/>
<rect y="114" width="5" height="5" fill="#F52227"/>
<rect x="57" y="114" width="5" height="5" fill="#F52227"/>
<rect x="114" y="114" width="5" height="5" fill="#F52227"/>
<rect y="171" width="5" height="5" fill="#F52227"/>
<rect x="57" y="171" width="5" height="5" fill="#F52227"/>
<rect x="114" y="171" width="5" height="5" fill="#F52227"/>
<rect y="228" width="5" height="5" fill="#F52227"/>
<rect x="57" y="228" width="5" height="5" fill="#F52227"/>
<rect x="114" y="228" width="5" height="5" fill="#F52227"/>
<rect y="285" width="5" height="5" fill="#F52227"/>
<rect x="57" y="285" width="5" height="5" fill="#F52227"/>
<rect x="114" y="285" width="5" height="5" fill="#F52227"/>
<rect x="171" width="5" height="5" fill="#F52227"/>
<rect x="228" width="5" height="5" fill="#F52227"/>
<rect x="285" width="5" height="5" fill="#F52227"/>
<rect x="171" y="57" width="5" height="5" fill="#F52227"/>
<rect x="228" y="57" width="5" height="5" fill="#F52227"/>
<rect x="285" y="57" width="5" height="5" fill="#F52227"/>
<rect x="171" y="114" width="5" height="5" fill="#F52227"/>
<rect x="228" y="114" width="5" height="5" fill="#F52227"/>
<rect x="285" y="114" width="5" height="5" fill="#F52227"/>
<rect x="171" y="171" width="5" height="5" fill="#F52227"/>
<rect x="228" y="171" width="5" height="5" fill="#F52227"/>
<rect x="285" y="171" width="5" height="5" fill="#F52227"/>
<rect x="171" y="228" width="5" height="5" fill="#F52227"/>
<rect x="228" y="228" width="5" height="5" fill="#F52227"/>
<rect x="285" y="228" width="5" height="5" fill="#F52227"/>
<rect x="171" y="285" width="5" height="5" fill="#F52227"/>
<rect x="228" y="285" width="5" height="5" fill="#F52227"/>
<rect x="285" y="285" width="5" height="5" fill="#F52227"/>
</svg>
