<svg width="36" height="39" viewBox="0 0 36 39" fill="none" xmlns="http://www.w3.org/2000/svg">
<path d="M21.6616 3.14883H20.3693C20.0331 2.22589 19.4211 1.42871 18.6164 0.865424C17.8116 0.302136 16.8531 0 15.8709 0C14.8886 0 13.9301 0.302136 13.1254 0.865424C12.3206 1.42871 11.7086 2.22589 11.3724 3.14883H10.3386C9.55616 3.15206 8.80672 3.46431 8.25347 4.01756C7.70022 4.57081 7.38797 5.32025 7.38474 6.10266V10.5334H24.6154V6.10266C24.6122 5.32025 24.2999 4.57081 23.7467 4.01756C23.1934 3.46431 22.444 3.15206 21.6616 3.14883V3.14883ZM22.1539 8.07188H9.84626V5.91804C9.84626 5.83644 9.87868 5.75818 9.93638 5.70047C9.99409 5.64277 10.0723 5.61035 10.154 5.61035H13.4647L13.6124 4.2442C13.6386 4.02332 13.7128 3.81084 13.8297 3.62163C13.9466 3.43241 14.1035 3.27105 14.2893 3.14883C14.6196 2.90259 15.0065 2.74319 15.4144 2.68526C15.8223 2.62732 16.2382 2.6727 16.624 2.81723C17.0098 2.96175 17.3532 3.20081 17.6226 3.51248C17.8921 3.82415 18.079 4.19847 18.1662 4.60113L18.277 5.63497H21.8462C21.9278 5.63497 22.0061 5.66738 22.0638 5.72509C22.1215 5.78279 22.1539 5.86105 22.1539 5.94266V8.07188Z" fill="#589FB3"/>
<path d="M34.7692 20.4534H20.0985L23.5939 16.9703C23.7087 16.8555 23.7997 16.7193 23.8618 16.5694C23.9239 16.4194 23.9559 16.2587 23.9559 16.0965C23.9559 15.9342 23.9239 15.7735 23.8618 15.6235C23.7997 15.4736 23.7087 15.3374 23.5939 15.2226C23.4791 15.1079 23.3429 15.0168 23.193 14.9547C23.043 14.8926 22.8823 14.8607 22.7201 14.8607C22.5578 14.8607 22.3971 14.8926 22.2471 14.9547C22.0972 15.0168 21.961 15.1079 21.8462 15.2226L15.3847 21.6841L21.8462 28.1456C21.9612 28.2597 22.0976 28.35 22.2476 28.4112C22.3975 28.4725 22.5581 28.5035 22.7201 28.5026C22.962 28.5016 23.1983 28.4293 23.3994 28.2947C23.6004 28.1602 23.7574 27.9694 23.8507 27.7461C23.9439 27.5229 23.9693 27.2771 23.9236 27.0395C23.8779 26.8019 23.7633 26.583 23.5939 26.4103L20.0985 22.9149H34.7692C35.0957 22.9149 35.4087 22.7852 35.6395 22.5544C35.8703 22.3236 36 22.0105 36 21.6841C36 21.3577 35.8703 21.0447 35.6395 20.8138C35.4087 20.583 35.0957 20.4534 34.7692 20.4534Z" fill="#589FB3"/>
<path d="M29.5384 17.918H32V6.44723C32.0032 6.1779 31.9532 5.91058 31.8527 5.66066C31.7523 5.41074 31.6034 5.18315 31.4147 4.99098C31.2259 4.79882 31.001 4.64587 30.753 4.54093C30.5049 4.436 30.2385 4.38115 29.9692 4.37955H27.1754V6.84108H29.5384V17.918Z" fill="#589FB3"/>
<path d="M29.5385 36.3794H2.46168V6.84108H4.92321V4.37955H2.0186C1.47889 4.38604 0.963668 4.60584 0.585478 4.99095C0.207288 5.37606 -0.00314186 5.89518 0.000148738 6.43492V36.7733C-0.00310122 37.0426 0.0469373 37.3099 0.147385 37.5598C0.247834 37.8097 0.396709 38.0373 0.585445 38.2295C0.774182 38.4217 0.999053 38.5746 1.24712 38.6796C1.49519 38.7845 1.76156 38.8393 2.03091 38.8409H29.9816C30.5213 38.8344 31.0365 38.6146 31.4147 38.2295C31.7929 37.8444 32.0033 37.3253 32 36.7856V25.3764H29.5385V36.3794Z" fill="#589FB3"/>
</svg>
