<svg id="Calque_2" data-name="Calque 2" xmlns="http://www.w3.org/2000/svg" viewBox="0 0 431.79 432.04"><title>logo</title><path d="M252.24,355.44V95.52a126.35,126.35,0,0,0-72.32-.13V429h0A217.18,217.18,0,0,0,211.25,432c1.53,0,3.05.05,4.58.05,2.06,0,4.11,0,6.15-.1l1.72-.06c1.8-.06,3.6-.14,5.39-.25l1.77-.12c1.5-.11,3-.23,4.49-.36l2.61-.25c1.15-.12,2.29-.25,3.44-.39,1.51-.17,3-.37,4.52-.58l2.59-.37,3.26-.52.47-.08h0a215.92,215.92,0,0,0,143.25-93.12L336,296.15A144.42,144.42,0,0,1,252.24,355.44Z" transform="translate(0.06)" fill="#589FB3"/><path d="M215.83,0C96.6,0-.06,96.71-.06,216c0,100.59,68.72,185.11,161.75,209.15V349.4A143.83,143.83,0,0,1,71.83,216.18c0-79.42,64.58-143.81,144.25-143.81s144.19,64.33,144.25,143.7l71.4,0C431.73,96.71,335.07,0,215.83,0Z" transform="translate(0.06)" fill="#589FB3"/></svg>